<svg width="50" height="50" viewBox="0 0 50 50" fill="none" xmlns="http://www.w3.org/2000/svg">
<path d="M25.0196 0C32.4122 0 39.0695 3.22772 43.6438 8.3325C43.6937 8.38508 43.741 8.44031 43.7856 8.49755C43.8299 8.55478 43.8716 8.61434 43.9102 8.67557C43.9485 8.73713 43.9841 8.80035 44.0161 8.86524C44.0484 8.93046 44.0774 8.99668 44.1027 9.06456C44.1283 9.13244 44.1503 9.20166 44.1689 9.27153C44.1876 9.34175 44.2029 9.41262 44.2142 9.48416C44.2259 9.55571 44.2339 9.62791 44.2382 9.70012C44.2425 9.77266 44.2432 9.8452 44.2402 9.91741C44.2372 9.98995 44.2309 10.0622 44.2206 10.134C44.2106 10.2059 44.1966 10.2768 44.1796 10.3473C44.1623 10.4179 44.1413 10.4871 44.1173 10.5556C44.093 10.6238 44.0654 10.6911 44.0344 10.7566C44.0034 10.8222 43.9695 10.8861 43.9322 10.9483C43.8945 11.0105 43.8542 11.0707 43.8109 11.1286C43.7677 11.1869 43.7214 11.2428 43.6724 11.2963C43.6235 11.3499 43.5718 11.4008 43.5179 11.4491C43.4639 11.4977 43.4073 11.5432 43.3487 11.5858C43.2901 11.6288 43.2295 11.6684 43.1669 11.7053C43.1043 11.7419 43.04 11.7752 42.9741 11.8055C42.9081 11.8357 42.8409 11.8627 42.7723 11.8863C42.7037 11.9099 42.6337 11.9299 42.5631 11.9465C42.4925 11.9629 42.4213 11.9762 42.3493 11.9855C42.2774 11.9948 42.2052 12.0008 42.1326 12.0028C42.06 12.0051 41.9874 12.0038 41.9151 11.9988C41.8425 11.9938 41.7706 11.9851 41.699 11.9728C41.6277 11.9605 41.5568 11.9449 41.4868 11.9256C41.4169 11.9063 41.348 11.8833 41.2804 11.857C41.2128 11.8311 41.1465 11.8015 41.0819 11.7685C41.017 11.7359 40.954 11.7 40.8931 11.6607C40.8318 11.6218 40.7729 11.5795 40.7159 11.5346C40.659 11.4897 40.6044 11.4418 40.5524 11.3915C40.5001 11.3409 40.4508 11.288 40.4039 11.2325C36.6175 7.00714 31.1481 4.34777 25.0196 4.34777C13.579 4.34777 4.35116 13.5684 4.35116 24.9998C4.35116 36.4316 13.579 45.6522 25.0196 45.6522C31.1471 45.6522 36.6162 42.9932 40.4039 38.7675C40.4508 38.712 40.5001 38.6591 40.5524 38.6085C40.6044 38.5582 40.659 38.5103 40.7159 38.4654C40.7729 38.4205 40.8318 38.3782 40.8931 38.3393C40.954 38.3 41.017 38.2641 41.0819 38.2315C41.1465 38.1985 41.2128 38.1689 41.2804 38.143C41.348 38.1167 41.4169 38.0937 41.4868 38.0744C41.5568 38.0551 41.6277 38.0395 41.699 38.0272C41.7706 38.0149 41.8425 38.0062 41.9151 38.0012C41.9874 37.9962 42.06 37.9949 42.1326 37.9972C42.2052 37.9992 42.2774 38.0052 42.3493 38.0145C42.4213 38.0238 42.4925 38.0368 42.5631 38.0535C42.6337 38.0701 42.7037 38.0901 42.7723 38.1137C42.8409 38.1373 42.9081 38.1643 42.9741 38.1945C43.04 38.2248 43.1043 38.2581 43.1669 38.2947C43.2295 38.3316 43.2901 38.3712 43.3487 38.4142C43.4073 38.4568 43.4639 38.5023 43.5179 38.5506C43.5718 38.5992 43.6235 38.6501 43.6724 38.7037C43.7214 38.7572 43.7677 38.8131 43.8109 38.8714C43.8542 38.9293 43.8945 38.9895 43.9322 39.0517C43.9695 39.1139 44.0034 39.1778 44.0344 39.2434C44.0654 39.3089 44.093 39.3762 44.1173 39.4444C44.1413 39.5129 44.1623 39.5821 44.1796 39.6527C44.1966 39.7232 44.2106 39.7941 44.2206 39.866C44.2309 39.9378 44.2372 40.01 44.2402 40.0826C44.2432 40.1548 44.2425 40.2273 44.2382 40.2999C44.2339 40.3721 44.2259 40.4443 44.2142 40.5158C44.2029 40.5874 44.1876 40.6583 44.1689 40.7285C44.1503 40.7983 44.1283 40.8676 44.1027 40.9354C44.0774 41.0033 44.0484 41.0695 44.0161 41.1348C43.9841 41.1996 43.9485 41.2629 43.9102 41.3244C43.8716 41.3857 43.8299 41.4452 43.7856 41.5025C43.741 41.5597 43.6937 41.6149 43.6438 41.6675C39.0685 46.7719 32.4112 50 25.0196 50C11.2272 50 0 38.7815 0 24.9998C0 11.2185 11.2272 0 25.0196 0ZM40.2234 15.1962C40.3633 15.2002 40.5015 15.2179 40.638 15.2488C40.7749 15.2794 40.9071 15.323 41.0353 15.3796C41.1635 15.4358 41.285 15.504 41.3999 15.5839C41.5151 15.6637 41.6214 15.7539 41.719 15.8544L49.1402 23.2698C49.2071 23.3204 49.2707 23.3747 49.331 23.4329C49.3916 23.4908 49.4485 23.552 49.5018 23.6166C49.5551 23.6811 49.6047 23.7487 49.6503 23.8189C49.696 23.8894 49.7373 23.962 49.7742 24.0372C49.8115 24.112 49.8442 24.1892 49.8725 24.2681C49.9008 24.347 49.9244 24.4272 49.9434 24.5087C49.9624 24.5902 49.9767 24.6727 49.986 24.7559C49.9953 24.8391 50 24.9226 50 25.0065C49.9997 25.09 49.9947 25.1735 49.9847 25.2567C49.975 25.3399 49.9604 25.4224 49.9411 25.5036C49.9214 25.5851 49.8974 25.6653 49.8688 25.7442C49.8402 25.8227 49.8072 25.8996 49.7696 25.9745C49.7323 26.0493 49.6903 26.1219 49.6443 26.1921C49.5984 26.262 49.5488 26.3292 49.4952 26.3934C49.4412 26.458 49.3843 26.5189 49.3233 26.5768C49.2627 26.6343 49.1988 26.6882 49.1318 26.7388L41.719 34.1456C41.669 34.1978 41.6164 34.2471 41.5618 34.294C41.5068 34.3409 41.4495 34.3848 41.3903 34.4258C41.331 34.467 41.2697 34.505 41.2068 34.5402C41.1435 34.5752 41.0789 34.6071 41.0126 34.6357C40.9464 34.6644 40.8788 34.6896 40.8102 34.7113C40.7412 34.7332 40.6716 34.7519 40.601 34.7668C40.5304 34.7818 40.4592 34.7931 40.3876 34.8011C40.3156 34.8088 40.2437 34.8131 40.1714 34.8141C40.0995 34.8148 40.0272 34.8118 39.9556 34.8054C39.8837 34.7991 39.8121 34.7891 39.7412 34.7755C39.6703 34.7618 39.6003 34.7449 39.5311 34.7246C39.4618 34.7039 39.3939 34.68 39.3269 34.6527C39.2603 34.6254 39.195 34.5951 39.1311 34.5612C39.0675 34.5276 39.0052 34.4907 38.9453 34.4507C38.885 34.4108 38.8271 34.3679 38.7714 34.3223C38.7155 34.2767 38.6619 34.2284 38.6109 34.1772C38.56 34.1263 38.5114 34.073 38.4657 34.0171C38.4201 33.9612 38.3772 33.9033 38.3372 33.8431C38.2972 33.7832 38.2606 33.7213 38.2266 33.6574C38.193 33.5939 38.1624 33.5287 38.1351 33.4618C38.1078 33.3949 38.0838 33.327 38.0635 33.2578C38.0428 33.1886 38.0258 33.1187 38.0122 33.0478C37.9989 32.977 37.9889 32.9057 37.9822 32.8339C37.9759 32.762 37.9729 32.6901 37.9739 32.6179C37.9745 32.5457 37.9789 32.4738 37.9869 32.402C37.9945 32.3304 38.0062 32.2592 38.0212 32.1887C38.0362 32.1181 38.0545 32.0486 38.0764 31.9797C38.0984 31.9111 38.1237 31.8436 38.152 31.7774C38.1807 31.7112 38.2127 31.6466 38.2476 31.5834C38.2829 31.5205 38.3209 31.4593 38.3622 31.4C38.4035 31.3408 38.4474 31.2839 38.494 31.229C38.541 31.1741 38.5906 31.1215 38.6426 31.0716L42.5435 27.1741H22.7758C22.7039 27.175 22.6323 27.1724 22.5607 27.1664C22.4891 27.1601 22.4178 27.1504 22.3472 27.1374C22.2763 27.1241 22.2067 27.1078 22.1374 27.0875C22.0685 27.0676 22.0005 27.0443 21.9339 27.0173C21.867 26.9907 21.8017 26.9604 21.7381 26.9271C21.6745 26.8939 21.6126 26.8576 21.5523 26.8183C21.492 26.7791 21.4341 26.7368 21.3781 26.6916C21.3222 26.6463 21.2686 26.5987 21.2176 26.5481C21.1663 26.4979 21.1177 26.445 21.0718 26.3897C21.0258 26.3345 20.9825 26.2769 20.9426 26.2174C20.9023 26.1578 20.865 26.0966 20.8307 26.0334C20.7967 25.9701 20.7657 25.9053 20.7378 25.839C20.7101 25.7728 20.6858 25.7053 20.6645 25.6367C20.6435 25.5678 20.6259 25.4983 20.6119 25.4278C20.5976 25.3575 20.5869 25.2867 20.5799 25.2151C20.5729 25.1436 20.5693 25.0717 20.5693 24.9998C20.5693 24.9283 20.5729 24.8564 20.5799 24.7849C20.5869 24.7133 20.5976 24.6425 20.6119 24.5719C20.6259 24.5017 20.6435 24.4322 20.6645 24.3633C20.6858 24.2947 20.7101 24.2272 20.7378 24.161C20.7657 24.0947 20.7967 24.0299 20.8307 23.9666C20.865 23.9034 20.9023 23.8422 20.9426 23.7826C20.9825 23.7231 21.0258 23.6655 21.0718 23.6103C21.1177 23.555 21.1663 23.5021 21.2176 23.4519C21.2686 23.4013 21.3222 23.3537 21.3781 23.3084C21.4341 23.2632 21.492 23.2209 21.5523 23.1817C21.6126 23.1424 21.6745 23.1058 21.7381 23.0729C21.8017 23.0396 21.867 23.0093 21.9339 22.9827C22.0005 22.9557 22.0685 22.9324 22.1374 22.9125C22.2067 22.8922 22.2763 22.8759 22.3472 22.8626C22.4178 22.8496 22.4891 22.8399 22.5607 22.8336C22.6323 22.8276 22.7039 22.825 22.7758 22.8259H42.5435L38.6426 18.9284C38.5643 18.8525 38.4924 18.771 38.4264 18.6845C38.3605 18.5976 38.3016 18.5065 38.2493 18.411C38.197 18.3155 38.1524 18.2163 38.1147 18.1141C38.0774 18.0117 38.0481 17.9072 38.0265 17.8004C38.0049 17.6935 37.9915 17.5861 37.9859 17.4773C37.9805 17.3684 37.9832 17.26 37.9942 17.1515C38.0052 17.043 38.0242 16.9362 38.0511 16.8307C38.0781 16.7252 38.1127 16.6224 38.1554 16.5219C38.1977 16.4218 38.2476 16.3253 38.3046 16.2324C38.3615 16.1396 38.4251 16.0514 38.4954 15.9682C38.5656 15.885 38.6416 15.8075 38.7235 15.7356C38.8054 15.6637 38.8923 15.5982 38.9842 15.5396C39.0758 15.4807 39.1714 15.4292 39.271 15.3846C39.3705 15.3403 39.4728 15.3034 39.5777 15.2744C39.6826 15.2451 39.7895 15.2242 39.8977 15.2109C40.0056 15.1979 40.1142 15.1929 40.2234 15.1962Z" fill="white"/>
</svg>
