<svg width="859" height="452" viewBox="0 0 859 452" fill="none" xmlns="http://www.w3.org/2000/svg">
<g filter="url(#filter0_d)">
<path d="M419.483 222C419.483 198.836 430.447 174.249 423.7 153.39C416.781 131.726 393.323 118.417 380.414 100.395C367.334 82.2008 361.937 55.6602 343.965 42.429C326.156 29.3853 299.581 32.3161 278.231 25.212C257.557 18.4674 237.9 0 215.028 0C192.164 0 172.418 18.3815 151.833 25.212C130.484 32.2223 103.819 29.2994 86.0175 42.429C68.0455 55.6602 62.6487 82.2008 49.5687 100.395C36.5704 118.417 13.2016 131.726 6.19389 153.39C-0.472301 174.249 10.4178 198.836 10.4178 222C10.4178 245.172 -0.553958 269.759 6.19389 290.618C13.1125 312.274 36.5704 325.591 49.4796 343.605C62.5596 361.807 67.9638 388.348 85.9358 401.571C103.737 414.708 130.313 411.778 151.752 418.788C172.418 425.54 192.083 444 214.947 444C237.811 444 257.557 425.626 278.149 418.788C299.492 411.778 326.156 414.708 343.965 401.571C361.937 388.348 367.334 361.807 380.414 343.605C393.405 325.591 416.781 312.274 423.7 290.618C430.447 269.665 419.483 245.078 419.483 222Z" fill="black"/>
</g>
<g filter="url(#filter1_i)">
<path d="M413.173 222.008C413.173 199.555 423.803 175.718 417.263 155.508C410.553 134.516 387.822 121.613 375.307 104.146C362.635 86.5148 357.401 60.787 339.979 47.97C322.727 35.325 296.968 38.1619 276.279 31.2845C256.243 24.7431 237.187 6.854 215.028 6.854C192.862 6.854 173.732 24.6571 153.778 31.2845C133.089 38.0759 107.248 35.239 89.989 47.97C72.5738 60.787 67.3403 86.5148 54.6611 104.146C42.0711 121.613 19.4149 134.516 12.63 155.508C6.17164 175.718 16.7203 199.555 16.7203 222.008C16.7203 244.461 6.08998 268.29 12.63 288.5C19.3333 309.492 42.0711 322.395 54.5795 339.862C67.2586 357.501 72.4921 383.221 89.9073 396.038C107.167 408.769 132.926 405.932 153.696 412.723C173.732 419.265 192.781 437.162 214.947 437.162C237.106 437.162 256.243 419.351 276.197 412.723C296.886 405.932 322.727 408.769 339.979 396.038C357.401 383.221 362.635 357.501 375.307 339.862C387.904 322.395 410.553 309.492 417.263 288.5C423.803 268.204 413.173 244.375 413.173 222.008Z" fill="#F4F6FC"/>
</g>
<path d="M323.543 257.107C315.92 261.483 307.227 264.109 298.497 264.687C297.25 264.789 296.003 264.789 294.8 264.789C283.62 264.789 274.519 261.53 268.187 258.279C261.068 261.968 253.214 264.156 245.308 264.687C244.113 264.789 242.911 264.789 241.708 264.789C230.016 264.789 220.64 261.194 214.999 258.279C207.887 261.968 200.078 264.156 192.127 264.687C190.88 264.789 189.633 264.789 188.43 264.789C177.251 264.789 168.15 261.53 161.818 258.279C154.699 261.968 146.889 264.156 138.946 264.687C137.699 264.789 136.452 264.789 135.249 264.789C122.726 264.789 112.838 260.709 106.506 257.107C104.338 255.848 103.507 252.98 104.71 250.698C105.905 248.361 108.637 247.541 110.804 248.799C115.659 251.573 125.636 256.044 138.434 255.215C145.872 254.731 153.221 252.543 159.695 248.799C159.695 248.799 159.695 248.799 159.739 248.799C159.969 248.658 160.199 248.557 160.474 248.463C160.526 248.463 160.526 248.416 160.57 248.416C161.313 248.166 162.092 248.166 162.835 248.314C162.924 248.361 163.065 248.361 163.154 248.361C163.25 248.416 163.339 248.463 163.436 248.463C163.621 248.557 163.807 248.604 163.985 248.705C163.985 248.705 163.985 248.705 164.037 248.705C168.84 251.472 178.869 255.942 191.667 255.122C199.105 254.629 206.454 252.449 212.92 248.705C213.15 248.557 213.38 248.463 213.662 248.361C213.707 248.361 213.752 248.314 213.752 248.314C213.982 248.221 214.264 248.166 214.538 248.166C214.583 248.166 214.583 248.166 214.628 248.166C214.91 248.119 215.184 248.119 215.511 248.166C215.645 248.166 215.786 248.221 215.927 248.268C216.068 248.314 216.246 248.314 216.387 248.361C216.476 248.416 216.572 248.463 216.662 248.463C216.847 248.557 217.033 248.604 217.218 248.705H217.263C222.073 251.472 232.095 255.942 244.848 255.122C252.286 254.629 259.635 252.449 266.101 248.705C266.339 248.557 266.613 248.463 266.844 248.361C266.888 248.361 266.888 248.314 266.94 248.314C267.215 248.221 267.489 248.166 267.771 248.119C268.187 248.072 268.647 248.119 269.108 248.221C269.249 248.268 269.39 248.268 269.523 248.314C269.62 248.361 269.664 248.361 269.754 248.416C269.939 248.51 270.169 248.557 270.355 248.658C270.355 248.658 270.355 248.658 270.399 248.658C275.254 251.425 285.239 255.848 298.037 255.067C305.475 254.582 312.824 252.394 319.29 248.658C321.457 247.392 324.234 248.268 325.436 250.55C326.542 252.98 325.755 255.848 323.543 257.107ZM105.303 236.263C105.303 233.637 107.337 231.504 109.832 231.504H317.998C320.492 231.504 322.526 233.637 322.526 236.263C322.526 238.889 320.492 241.023 317.998 241.023H109.832C107.337 240.976 105.303 238.889 105.303 236.263ZM315.222 272.268C315.222 316.44 269.895 352.398 214.123 352.398C158.395 352.398 113.024 316.44 113.024 272.268C113.024 269.65 115.058 267.509 117.552 267.509C120.046 267.509 122.08 269.65 122.08 272.268C122.08 311.243 163.391 342.926 214.123 342.926C264.854 342.926 306.165 311.243 306.165 272.268C306.165 269.65 308.199 267.509 310.693 267.509C313.188 267.509 315.222 269.65 315.222 272.268ZM187.926 122.95L129.377 178.055C140.008 151.663 161.491 131.211 187.926 122.95ZM226.089 119.793L153.036 188.551H131.783L205.252 119.402C208.162 119.113 211.168 118.964 214.167 118.964C218.191 118.917 222.162 119.253 226.089 119.793ZM302.468 188.551H282.737L297.48 174.703C299.469 179.118 301.132 183.784 302.468 188.551ZM293.093 166.051L269.204 188.551H243.742L283.019 151.616C286.76 156.087 290.131 160.901 293.093 166.051ZM276.687 144.817L230.202 188.551H204.465L262.776 133.641C267.771 136.892 272.389 140.636 276.687 144.817ZM254.461 128.733L190.925 188.551H166.531L237.224 122.028C243.23 123.677 249.005 125.959 254.461 128.733ZM122.214 210.997C122.399 206.573 122.912 202.298 123.654 198.07H304.643C305.378 202.298 305.891 206.62 306.076 210.997H122.214ZM113.068 215.756C113.068 218.382 115.102 220.523 117.597 220.523H310.738C313.232 220.523 315.266 218.382 315.266 215.756C315.266 207.839 314.39 200.11 312.824 192.678C312.772 192.389 312.727 192.099 312.638 191.802C308.429 172.757 299.328 155.602 286.85 141.996C286.805 141.902 286.76 141.8 286.716 141.754C286.486 141.511 286.3 141.269 286.018 141.121C267.675 121.59 242.213 109.438 214.123 109.438C210.285 109.438 206.543 109.688 202.847 110.117C202.758 110.117 202.661 110.117 202.572 110.172C159.784 115.322 125.035 148.654 115.607 192.045C115.563 192.193 115.518 192.342 115.518 192.529C113.944 200.016 113.068 207.746 113.068 215.756Z" fill="black"/>
<path d="M137.111 56.0136C136.554 56.0683 136.072 56.2794 135.649 56.6467C135.218 57.014 134.928 57.4751 134.773 58.03L128.077 81.632L107.061 73.0196C107.351 72.3084 107.558 71.5738 107.692 70.8079C107.818 70.042 107.87 69.2683 107.833 68.4868C107.803 67.7053 107.685 66.9394 107.492 66.1735C107.291 65.4154 107.017 64.6886 106.668 63.9852C106.311 63.2896 105.896 62.6332 105.406 62.0314C104.916 61.4218 104.374 60.8825 103.773 60.4058C103.179 59.9213 102.54 59.5227 101.857 59.1944C101.174 58.8662 100.477 58.6161 99.7491 58.452C99.0216 58.2879 98.2867 58.2175 97.5443 58.2254C96.8094 58.241 96.0819 58.3426 95.3767 58.5223C94.6641 58.7099 93.9811 58.9756 93.3353 59.3273C92.682 59.679 92.0807 60.101 91.5314 60.6012C90.9746 61.1014 90.4847 61.6563 90.0541 62.2815C89.6236 62.8989 89.2673 63.5632 88.9778 64.2744C88.6957 64.9855 88.4878 65.7202 88.3616 66.4861C88.228 67.252 88.1909 68.0257 88.228 68.8072C88.2651 69.5887 88.3839 70.3624 88.5843 71.1205C88.7847 71.8786 89.0668 72.6054 89.4232 73.301C89.7795 74.0043 90.2026 74.653 90.6926 75.2548C91.1825 75.8566 91.7244 76.3958 92.3257 76.8725C92.9344 77.3415 93.5728 77.7479 94.2558 78.0683C94.9387 78.3965 95.6439 78.6388 96.3714 78.7951C97.0989 78.9514 97.8338 79.0217 98.5688 79.0061C99.3037 78.9905 100.031 78.8889 100.736 78.6935L105.524 101.897L82.3412 105.148C81.7919 105.226 81.3168 105.453 80.9085 105.836C80.5003 106.227 80.2256 106.696 80.092 107.266C79.9509 107.829 79.9732 108.391 80.1514 108.954C80.3369 109.517 80.6413 109.986 81.0793 110.369L114.522 139.137C114.113 139.676 113.92 140.293 113.943 140.989C113.957 141.684 114.188 142.302 114.618 142.849L120.193 149.718C120.438 150.023 120.728 150.266 121.062 150.453C121.396 150.633 121.745 150.742 122.116 150.781C122.487 150.82 122.851 150.781 123.207 150.664C123.556 150.555 123.868 150.367 124.15 150.117L170.397 108.556C170.672 108.305 170.895 108.008 171.058 107.657C171.221 107.313 171.318 106.938 171.34 106.547C171.362 106.156 171.31 105.773 171.192 105.398C171.073 105.023 170.887 104.679 170.642 104.374L165.067 97.5048C164.629 96.9734 164.088 96.6373 163.434 96.5123C162.781 96.3794 162.172 96.481 161.608 96.8171L139.872 57.5298C139.583 57.014 139.189 56.6232 138.692 56.3497C138.187 56.0683 137.66 55.9589 137.111 56.0136ZM95.2728 65.2122C95.6959 64.8371 96.1636 64.5557 96.6981 64.3838C97.2251 64.2118 97.767 64.1571 98.3238 64.2118C98.8805 64.2665 99.4076 64.4307 99.9124 64.712C100.41 64.9855 100.848 65.3529 101.211 65.814C101.583 66.2672 101.857 66.7752 102.043 67.3379C102.221 67.9085 102.295 68.479 102.258 69.0729C102.228 69.6591 102.087 70.2139 101.842 70.7376C101.597 71.2534 101.263 71.7067 100.848 72.0818C100.432 72.4569 99.9569 72.7305 99.4299 72.9024C98.9028 73.0743 98.3609 73.1369 97.8041 73.0743C97.2474 73.0196 96.7129 72.8555 96.2155 72.5742C95.7108 72.3006 95.2802 71.9333 94.909 71.48C94.5379 71.0189 94.2632 70.5109 94.085 69.9482C93.8995 69.3855 93.8252 68.8072 93.8623 68.2211C93.8995 67.6349 94.0331 67.08 94.278 66.5564C94.523 66.0328 94.8571 65.5873 95.2728 65.2122ZM164.577 105.867L122.539 143.646L120.683 141.356L162.722 103.577L164.577 105.867ZM157.265 100.561L118.708 135.206L89.5642 110.158L109.362 107.375C109.741 107.321 110.09 107.196 110.409 106.985C110.736 106.774 111.003 106.508 111.218 106.18C111.426 105.851 111.575 105.492 111.649 105.093C111.716 104.703 111.716 104.304 111.634 103.905L106.527 79.0843L128.99 88.2984C129.354 88.4469 129.725 88.5173 130.111 88.5016C130.489 88.486 130.853 88.4 131.195 88.2281C131.536 88.0562 131.825 87.8139 132.078 87.5169C132.323 87.2121 132.501 86.8682 132.612 86.4853L138.336 66.322L157.265 100.561Z" fill="black"/>
<path d="M576.245 302.828C576.245 301.68 575.794 300.901 574.892 300.491C574.017 300.054 572.541 299.835 570.464 299.835V306.108C571.749 306.108 572.787 306.012 573.58 305.821C574.4 305.63 575.042 305.302 575.507 304.837C575.999 304.345 576.245 303.675 576.245 302.828ZM576.778 313.775C576.778 312.873 576.546 312.176 576.081 311.684C575.616 311.192 574.947 310.85 574.072 310.659C573.197 310.44 571.995 310.331 570.464 310.331V317.424C572.596 317.424 574.181 317.164 575.22 316.645C576.259 316.098 576.778 315.142 576.778 313.775ZM581.821 308.404C584.363 309.907 585.634 311.916 585.634 314.431C585.634 315.524 585.415 316.577 584.978 317.588C584.568 318.572 583.939 319.474 583.092 320.294C582.272 321.114 581.179 321.77 579.812 322.262C578.445 322.727 576.901 322.959 575.179 322.959H565.667C564 322.959 562.797 322.535 562.059 321.688C561.348 320.841 560.993 319.324 560.993 317.137V299.794C560.993 298.865 561.157 298.045 561.485 297.334C561.813 296.623 562.332 296.049 563.043 295.612C563.781 295.175 564.656 294.956 565.667 294.956H575.056C577.789 294.983 580.058 295.735 581.862 297.211C583.693 298.66 584.609 300.532 584.609 302.828C584.609 303.566 584.541 304.222 584.404 304.796C584.295 305.343 584.117 305.835 583.871 306.272C583.625 306.709 583.338 307.092 583.01 307.42C582.682 307.748 582.286 308.076 581.821 308.404ZM598.934 314.349C598.934 315.907 599.536 316.686 600.738 316.686C601.148 316.686 601.504 316.563 601.804 316.317C602.132 316.044 602.378 315.675 602.542 315.21C602.706 314.745 602.788 314.212 602.788 313.611V308.117C602.788 307.188 602.952 306.381 603.28 305.698C603.608 304.987 604.087 304.441 604.715 304.058C605.344 303.675 606.082 303.484 606.929 303.484C608.405 303.484 609.553 303.812 610.373 304.468C611.193 305.097 611.603 306.272 611.603 307.994V318.654C611.603 320.321 611.262 321.469 610.578 322.098C609.895 322.727 608.692 323.041 606.97 323.041C606.232 323.041 605.604 322.973 605.084 322.836C604.565 322.672 604.141 322.44 603.813 322.139C603.513 321.838 603.28 321.442 603.116 320.95C601.996 321.688 600.807 322.207 599.549 322.508C598.319 322.809 596.939 322.959 595.408 322.959C593.468 322.959 592.074 322.207 591.226 320.704C590.379 319.173 589.955 316.672 589.955 313.201C589.955 311.479 589.996 310.085 590.078 309.019C590.16 307.926 590.283 306.996 590.447 306.231C590.639 305.438 590.912 304.851 591.267 304.468C591.65 304.085 592.087 303.812 592.579 303.648C593.099 303.484 593.768 303.402 594.588 303.402C596.119 303.402 597.212 303.689 597.868 304.263C598.552 304.837 598.893 305.698 598.893 306.846L598.934 314.349ZM624.395 318.613C624.395 320.253 624.054 321.401 623.37 322.057C622.687 322.686 621.471 323 619.721 323C618.109 323 617.015 322.631 616.441 321.893C615.867 321.128 615.58 319.884 615.58 318.162V308.076C615.58 307.147 615.744 306.34 616.072 305.657C616.4 304.946 616.879 304.4 617.507 304.017C618.136 303.634 618.874 303.443 619.721 303.443C621.799 303.443 623.165 304.044 623.821 305.247C625.407 304.044 626.937 303.443 628.413 303.443C631.283 303.443 632.718 304.81 632.718 307.543C632.718 308.636 632.404 309.525 631.775 310.208C631.147 310.891 630.327 311.233 629.315 311.233C628.714 311.233 628.222 311.11 627.839 310.864C627.484 310.618 627.142 310.372 626.814 310.126C626.514 309.88 626.158 309.757 625.748 309.757C625.147 309.757 624.696 309.962 624.395 310.372V318.613ZM641.981 323.246C639.821 323.246 638.031 322.371 636.61 320.622C635.188 318.845 634.478 316.413 634.478 313.324C634.478 310.208 635.175 307.734 636.569 305.903C637.963 304.072 639.753 303.156 641.94 303.156C644.154 303.156 646.204 303.921 648.09 305.452C648.8 304.113 649.976 303.443 651.616 303.443C653.092 303.443 654.24 303.771 655.06 304.427C655.907 305.083 656.331 306.258 656.331 307.953V315.456C656.331 318.107 656.153 320.39 655.798 322.303C655.47 324.189 654.882 325.856 654.035 327.305C653.215 328.754 652.067 329.833 650.591 330.544C649.142 331.255 647.352 331.61 645.22 331.61C643.744 331.61 642.377 331.405 641.12 330.995C639.862 330.585 638.865 330.079 638.127 329.478C637.389 328.877 636.815 328.275 636.405 327.674C635.995 327.073 635.79 326.553 635.79 326.116C635.79 325.597 635.94 325.159 636.241 324.804C636.541 324.449 636.965 324.271 637.512 324.271C637.84 324.271 638.66 324.626 639.972 325.337C641.311 326.048 642.391 326.403 643.211 326.403C645.999 326.403 647.393 324.968 647.393 322.098C645.807 322.863 644.003 323.246 641.981 323.246ZM647.557 317.096L647.516 309.347C647.051 308.582 646.463 308.199 645.753 308.199C645.261 308.199 644.823 308.459 644.441 308.978C644.085 309.497 643.812 310.14 643.621 310.905C643.457 311.67 643.375 312.477 643.375 313.324C643.375 314.609 643.58 315.743 643.99 316.727C644.4 317.684 644.974 318.162 645.712 318.162C646.45 318.162 647.065 317.807 647.557 317.096ZM671.379 323.246C668.044 323.246 665.283 322.385 663.097 320.663C660.937 318.941 659.858 316.59 659.858 313.611C659.858 310.386 660.924 307.844 663.056 305.985C665.215 304.099 667.989 303.156 671.379 303.156C674.577 303.156 676.914 303.73 678.39 304.878C679.893 305.999 680.645 307.543 680.645 309.511C680.645 309.894 680.59 310.263 680.481 310.618C680.399 310.973 680.248 311.329 680.03 311.684C679.838 312.012 679.565 312.326 679.21 312.627C678.882 312.9 678.499 313.16 678.062 313.406C677.624 313.625 677.105 313.802 676.504 313.939C675.902 314.048 675.26 314.103 674.577 314.103L668.796 314.144C669.069 315.019 669.561 315.716 670.272 316.235C670.982 316.727 671.884 316.973 672.978 316.973C674.153 316.973 675.356 316.823 676.586 316.522C677.105 316.385 677.665 316.167 678.267 315.866C678.895 315.565 679.346 315.415 679.62 315.415C680.084 315.415 680.44 315.552 680.686 315.825C680.959 316.098 681.096 316.44 681.096 316.85C681.096 317.342 680.877 317.943 680.44 318.654C680.002 319.337 679.387 320.034 678.595 320.745C677.829 321.428 676.804 322.016 675.52 322.508C674.235 323 672.855 323.246 671.379 323.246ZM668.591 311.52C670.477 311.493 671.502 311.479 671.666 311.479C672.076 311.479 672.376 311.233 672.568 310.741C672.704 310.386 672.773 309.894 672.773 309.265C672.773 307.543 672.253 306.682 671.215 306.682C670.832 306.682 670.449 306.887 670.067 307.297C669.711 307.707 669.397 308.295 669.124 309.06C668.85 309.798 668.673 310.618 668.591 311.52ZM693.303 318.613C693.303 320.253 692.961 321.401 692.278 322.057C691.594 322.686 690.378 323 688.629 323C687.016 323 685.923 322.631 685.349 321.893C684.775 321.128 684.488 319.884 684.488 318.162V308.076C684.488 307.147 684.652 306.34 684.98 305.657C685.308 304.946 685.786 304.4 686.415 304.017C687.043 303.634 687.781 303.443 688.629 303.443C690.706 303.443 692.073 304.044 692.729 305.247C694.314 304.044 695.845 303.443 697.321 303.443C700.191 303.443 701.626 304.81 701.626 307.543C701.626 308.636 701.311 309.525 700.683 310.208C700.054 310.891 699.234 311.233 698.223 311.233C697.621 311.233 697.129 311.11 696.747 310.864C696.391 310.618 696.05 310.372 695.722 310.126C695.421 309.88 695.066 309.757 694.656 309.757C694.054 309.757 693.603 309.962 693.303 310.372V318.613ZM567.225 368.246C565.066 368.246 563.275 367.371 561.854 365.622C560.433 363.845 559.722 361.426 559.722 358.365C559.722 355.249 560.419 352.775 561.813 350.944C563.234 349.085 565.038 348.156 567.225 348.156C569.439 348.156 571.489 348.935 573.375 350.493C574.113 349.126 575.302 348.443 576.942 348.443C578.418 348.443 579.566 348.771 580.386 349.427C581.206 350.056 581.616 351.231 581.616 352.953V363.613C581.616 365.253 581.274 366.401 580.591 367.057C579.908 367.686 578.705 368 576.983 368C575.179 368 573.99 367.494 573.416 366.483C571.667 367.658 569.603 368.246 567.225 368.246ZM572.801 354.429C572.336 353.636 571.735 353.24 570.997 353.24C570.286 353.24 569.712 353.759 569.275 354.798C568.838 355.837 568.619 357.026 568.619 358.365C568.619 359.622 568.824 360.743 569.234 361.727C569.644 362.711 570.218 363.203 570.956 363.203C571.721 363.203 572.336 362.834 572.801 362.096V354.429ZM598.058 356.971C598.058 355.44 597.457 354.675 596.254 354.675C595.68 354.675 595.202 354.921 594.819 355.413C594.464 355.878 594.259 356.506 594.204 357.299V363.613C594.204 365.28 593.862 366.428 593.179 367.057C592.496 367.686 591.293 368 589.571 368C587.958 368 586.851 367.631 586.25 366.893C585.676 366.128 585.389 364.884 585.389 363.162V353.076C585.389 351.682 585.758 350.561 586.496 349.714C587.261 348.867 588.273 348.443 589.53 348.443C590.569 348.443 591.443 348.593 592.154 348.894C592.865 349.195 593.398 349.714 593.753 350.452C595.885 349.058 598.482 348.361 601.543 348.361C603.484 348.361 604.878 349.126 605.725 350.657C606.6 352.188 607.037 354.702 607.037 358.201C607.037 359.923 606.996 361.331 606.914 362.424C606.832 363.49 606.695 364.419 606.504 365.212C606.34 365.977 606.067 366.551 605.684 366.934C605.301 367.317 604.85 367.59 604.331 367.754C603.839 367.918 603.197 368 602.404 368C600.873 368 599.766 367.713 599.083 367.139C598.427 366.565 598.099 365.718 598.099 364.597L598.058 356.971ZM632.589 361.85C632.589 364.064 632.22 365.649 631.482 366.606C630.744 367.535 629.609 368 628.079 368C626.329 368 625.127 367.453 624.471 366.36C622.694 367.645 620.548 368.287 618.034 368.287C615.902 368.287 614.125 367.412 612.704 365.663C611.282 363.886 610.572 361.467 610.572 358.406C610.572 355.29 611.269 352.816 612.663 350.985C614.057 349.126 615.847 348.197 618.034 348.197C620.002 348.197 621.847 348.826 623.569 350.083V344.835C623.569 343.168 623.979 341.938 624.799 341.145C625.619 340.325 626.712 339.915 628.079 339.915C629.582 339.915 630.703 340.216 631.441 340.817C632.206 341.418 632.589 342.635 632.589 344.466V361.85ZM623.651 362.096L623.61 354.429C623.145 353.664 622.544 353.281 621.806 353.281C621.341 353.281 620.917 353.541 620.535 354.06C620.179 354.579 619.906 355.222 619.715 355.987C619.523 356.752 619.428 357.559 619.428 358.406C619.428 359.663 619.633 360.784 620.043 361.768C620.453 362.752 621.027 363.244 621.765 363.244C621.901 363.244 622.038 363.23 622.175 363.203C622.311 363.176 622.434 363.148 622.544 363.121C622.653 363.066 622.762 363.012 622.872 362.957C622.981 362.875 623.077 362.793 623.159 362.711C623.241 362.629 623.323 362.533 623.405 362.424C623.487 362.315 623.569 362.205 623.651 362.096ZM664.918 347.623C664.918 347.049 664.672 346.557 664.18 346.147C663.716 345.737 663.155 345.532 662.499 345.532C661.187 345.532 660.108 346.284 659.26 347.787C658.413 349.263 657.989 350.944 657.989 352.83C657.989 354.279 658.263 355.591 658.809 356.766C659.356 357.914 660.149 358.83 661.187 359.513C662.226 360.196 663.429 360.538 664.795 360.538C665.807 360.538 666.777 360.347 667.706 359.964C668.636 359.554 669.387 359.117 669.961 358.652C670.535 358.16 671.123 357.723 671.724 357.34C672.353 356.93 672.9 356.725 673.364 356.725C673.966 356.725 674.485 356.971 674.922 357.463C675.36 357.928 675.578 358.42 675.578 358.939C675.578 359.513 675.401 360.183 675.045 360.948C674.717 361.713 674.184 362.533 673.446 363.408C672.708 364.255 671.847 365.048 670.863 365.786C669.879 366.497 668.649 367.098 667.173 367.59C665.725 368.055 664.194 368.287 662.581 368.287C660.449 368.287 658.468 367.973 656.636 367.344C654.832 366.688 653.261 365.772 651.921 364.597C650.582 363.394 649.53 361.891 648.764 360.087C647.999 358.283 647.616 356.26 647.616 354.019C647.616 349.591 648.942 346.092 651.593 343.523C654.245 340.954 657.716 339.669 662.007 339.669C664.194 339.669 666.217 340.038 668.075 340.776C669.934 341.514 671.41 342.539 672.503 343.851C673.597 345.163 674.143 346.598 674.143 348.156C674.143 349.96 673.542 351.6 672.339 353.076C671.137 354.525 669.579 355.249 667.665 355.249C666.572 355.249 665.588 354.948 664.713 354.347C663.839 353.746 663.401 352.885 663.401 351.764C663.401 351.245 663.647 350.52 664.139 349.591C664.659 348.662 664.918 348.006 664.918 347.623ZM692.365 358.283C692.365 356.862 692.188 355.618 691.832 354.552C691.477 353.459 690.958 352.912 690.274 352.912C689.81 352.912 689.4 353.185 689.044 353.732C688.689 354.279 688.429 354.948 688.265 355.741C688.101 356.534 688.019 357.381 688.019 358.283C688.019 359.677 688.211 360.907 688.593 361.973C688.976 363.012 689.523 363.531 690.233 363.531C690.944 363.531 691.477 363.012 691.832 361.973C692.188 360.934 692.365 359.704 692.365 358.283ZM690.233 368.287C688.101 368.287 686.174 367.904 684.452 367.139C682.758 366.374 681.391 365.226 680.352 363.695C679.341 362.164 678.835 360.374 678.835 358.324C678.835 355.208 679.901 352.734 682.033 350.903C684.165 349.072 686.899 348.156 690.233 348.156C693.568 348.156 696.288 349.072 698.392 350.903C700.497 352.734 701.549 355.208 701.549 358.324C701.549 361.413 700.47 363.845 698.31 365.622C696.178 367.399 693.486 368.287 690.233 368.287ZM717.001 346.434C716.427 346.899 716.14 347.978 716.14 349.673C717.971 349.673 719.242 349.851 719.953 350.206C720.663 350.534 721.019 351.272 721.019 352.42C721.019 353.349 720.636 353.964 719.871 354.265C719.105 354.538 717.862 354.675 716.14 354.675V361.85C716.14 364.173 715.771 365.786 715.033 366.688C714.322 367.563 713.188 368 711.63 368C710.099 368 708.978 367.576 708.268 366.729C707.557 365.854 707.202 364.324 707.202 362.137L707.243 354.675C705.22 354.648 704.209 353.855 704.209 352.297C704.209 350.684 705.234 349.823 707.284 349.714C707.311 346.188 707.817 343.687 708.801 342.211C709.812 340.708 711.739 339.956 714.582 339.956C716.85 339.956 718.613 340.421 719.871 341.35C721.155 342.279 721.798 343.222 721.798 344.179C721.798 344.589 721.62 344.958 721.265 345.286C720.937 345.587 720.458 345.737 719.83 345.737C718.49 345.737 717.547 345.969 717.001 346.434ZM736.259 346.434C735.685 346.899 735.398 347.978 735.398 349.673C737.23 349.673 738.501 349.851 739.211 350.206C739.922 350.534 740.277 351.272 740.277 352.42C740.277 353.349 739.895 353.964 739.129 354.265C738.364 354.538 737.12 354.675 735.398 354.675V361.85C735.398 364.173 735.029 365.786 734.291 366.688C733.581 367.563 732.446 368 730.888 368C729.358 368 728.237 367.576 727.526 366.729C726.816 365.854 726.46 364.324 726.46 362.137L726.501 354.675C724.479 354.648 723.467 353.855 723.467 352.297C723.467 350.684 724.492 349.823 726.542 349.714C726.57 346.188 727.075 343.687 728.059 342.211C729.071 340.708 730.998 339.956 733.84 339.956C736.109 339.956 737.872 340.421 739.129 341.35C740.414 342.279 741.056 343.222 741.056 344.179C741.056 344.589 740.879 344.958 740.523 345.286C740.195 345.587 739.717 345.737 739.088 345.737C737.749 345.737 736.806 345.969 736.259 346.434ZM753.539 368.246C750.204 368.246 747.444 367.385 745.257 365.663C743.098 363.941 742.018 361.59 742.018 358.611C742.018 355.386 743.084 352.844 745.216 350.985C747.375 349.099 750.15 348.156 753.539 348.156C756.737 348.156 759.074 348.73 760.55 349.878C762.053 350.999 762.805 352.543 762.805 354.511C762.805 354.894 762.75 355.263 762.641 355.618C762.559 355.973 762.409 356.329 762.19 356.684C761.999 357.012 761.725 357.326 761.37 357.627C761.042 357.9 760.659 358.16 760.222 358.406C759.785 358.625 759.265 358.802 758.664 358.939C758.063 359.048 757.42 359.103 756.737 359.103L750.956 359.144C751.229 360.019 751.721 360.716 752.432 361.235C753.143 361.727 754.045 361.973 755.138 361.973C756.313 361.973 757.516 361.823 758.746 361.522C759.265 361.385 759.826 361.167 760.427 360.866C761.056 360.565 761.507 360.415 761.78 360.415C762.245 360.415 762.6 360.552 762.846 360.825C763.119 361.098 763.256 361.44 763.256 361.85C763.256 362.342 763.037 362.943 762.6 363.654C762.163 364.337 761.548 365.034 760.755 365.745C759.99 366.428 758.965 367.016 757.68 367.508C756.395 368 755.015 368.246 753.539 368.246ZM750.751 356.52C752.637 356.493 753.662 356.479 753.826 356.479C754.236 356.479 754.537 356.233 754.728 355.741C754.865 355.386 754.933 354.894 754.933 354.265C754.933 352.543 754.414 351.682 753.375 351.682C752.992 351.682 752.61 351.887 752.227 352.297C751.872 352.707 751.557 353.295 751.284 354.06C751.011 354.798 750.833 355.618 750.751 356.52ZM777.923 368.246C774.588 368.246 771.827 367.385 769.641 365.663C767.481 363.941 766.402 361.59 766.402 358.611C766.402 355.386 767.468 352.844 769.6 350.985C771.759 349.099 774.533 348.156 777.923 348.156C781.121 348.156 783.458 348.73 784.934 349.878C786.437 350.999 787.189 352.543 787.189 354.511C787.189 354.894 787.134 355.263 787.025 355.618C786.943 355.973 786.792 356.329 786.574 356.684C786.382 357.012 786.109 357.326 785.754 357.627C785.426 357.9 785.043 358.16 784.606 358.406C784.168 358.625 783.649 358.802 783.048 358.939C782.446 359.048 781.804 359.103 781.121 359.103L775.34 359.144C775.613 360.019 776.105 360.716 776.816 361.235C777.526 361.727 778.428 361.973 779.522 361.973C780.697 361.973 781.9 361.823 783.13 361.522C783.649 361.385 784.209 361.167 784.811 360.866C785.439 360.565 785.89 360.415 786.164 360.415C786.628 360.415 786.984 360.552 787.23 360.825C787.503 361.098 787.64 361.44 787.64 361.85C787.64 362.342 787.421 362.943 786.984 363.654C786.546 364.337 785.931 365.034 785.139 365.745C784.373 366.428 783.348 367.016 782.064 367.508C780.779 368 779.399 368.246 777.923 368.246ZM775.135 356.52C777.021 356.493 778.046 356.479 778.21 356.479C778.62 356.479 778.92 356.233 779.112 355.741C779.248 355.386 779.317 354.894 779.317 354.265C779.317 352.543 778.797 351.682 777.759 351.682C777.376 351.682 776.993 351.887 776.611 352.297C776.255 352.707 775.941 353.295 775.668 354.06C775.394 354.798 775.217 355.618 775.135 356.52Z" fill="white"/>
<path d="M463.398 330.409C467.808 332.262 471.905 334.088 476.077 335.697C480.257 337.307 483.582 340.432 486.782 343.738C489.053 346.092 489.788 349.182 488.734 352.617C488.044 354.876 487.309 357.196 486.329 359.299C482.736 366.967 476.768 369.477 469.634 367.183C460.332 364.215 457.482 359.948 455.871 346.585C455.529 343.772 455.819 340.864 455.819 337.524C454.208 337.775 452.538 337.801 450.957 338.268C444.751 340.025 438.856 342.474 433.92 347.606C432.198 349.372 429.77 350.298 427.573 351.285C426.125 351.934 425.702 351.259 426.2 349.493C427.447 345.01 429.926 341.081 433.259 338.389C440.386 332.547 448.047 328.488 457.029 328.99C457.534 329.016 458.35 328.401 458.536 327.839C463.242 314.727 470.398 303.744 478.72 293.445C488.207 281.692 499.617 272.258 512.274 265.732C523.26 260.012 534.358 253.893 546.169 250.915C564.289 246.372 582.595 246.06 600.953 249.687C620.083 253.425 638.842 258.964 657.646 264.218C670.117 267.714 682.61 271.332 695.423 272.198C705.281 272.881 715.214 272.691 725.094 272.327C732.963 272.042 740.839 271.271 748.656 270.034C758.039 268.554 766.651 263.976 775.314 259.83C786.597 254.473 795.758 246.034 802.446 234.03C803.159 232.766 803.923 231.494 805.378 232.204C806.833 232.922 806.67 234.593 806.38 235.951C805.586 240.036 803.871 243.81 801.414 246.865C794.496 255.407 786.887 262.798 777.4 267.221C768.157 271.548 759.064 276.438 749.109 278.135C742.658 279.217 736.133 280.021 729.608 280.428C719.995 280.982 710.352 281.475 700.709 281.259C686.471 280.956 672.626 277.148 658.811 273.496C643.385 269.48 628.034 264.806 612.556 260.972C599.847 257.813 587.005 255.252 573.88 255.745C564.631 256.117 555.151 255.805 546.354 259.086C528.278 265.828 509.816 271.955 494.331 285.595C482.075 296.388 471.564 309.162 464.987 325.736C464.378 327.224 463.955 328.8 463.398 330.409ZM461.654 338.856C460.622 343.798 461.416 348.195 462.604 352.557C464.192 358.243 468.765 361.74 474.155 361.463C478.824 361.22 481.578 358.157 482.87 351.717C482.892 351.657 482.951 351.562 482.922 351.501C482.632 350.61 482.58 349.372 482.023 348.844C476.159 343.218 469.107 340.83 461.654 338.856Z" fill="black"/>
<path d="M486.084 177.354C486.084 175.402 485.372 174.06 483.949 173.328C482.526 172.596 480.126 172.23 476.751 172.23V182.783C479.923 182.783 482.261 182.397 483.766 181.624C485.311 180.811 486.084 179.387 486.084 177.354ZM476.751 197.85C476.751 203.95 474.372 207 469.614 207C467.215 207 465.446 206.37 464.307 205.109C463.209 203.808 462.66 201.53 462.66 198.277V172.535C462.66 170.176 463.29 168.387 464.551 167.167C465.852 165.906 467.54 165.276 469.614 165.276H482.424C487.426 165.276 491.472 166.455 494.563 168.814C497.654 171.132 499.199 174.121 499.199 177.781C499.199 180.546 498.609 182.722 497.43 184.308C496.291 185.853 494.441 186.992 491.879 187.724C493.831 187.846 495.641 188.802 497.308 190.591C498.975 192.34 499.809 194.536 499.809 197.179C499.809 199.863 499.545 201.937 499.016 203.401C498.528 204.824 497.816 205.78 496.881 206.268C495.946 206.756 494.624 207 492.916 207C490.517 207 488.748 206.512 487.609 205.536C486.511 204.519 485.962 202.994 485.962 200.961C485.962 198.44 485.718 196.508 485.23 195.166C484.742 193.783 484.112 192.889 483.339 192.482C482.566 192.075 481.489 191.872 480.106 191.872L476.751 191.933V197.85ZM521.889 207.366C516.927 207.366 512.82 206.085 509.567 203.523C506.354 200.961 504.748 197.464 504.748 193.031C504.748 188.232 506.334 184.45 509.506 181.685C512.718 178.879 516.846 177.476 521.889 177.476C526.647 177.476 530.124 178.33 532.32 180.038C534.556 181.705 535.675 184.003 535.675 186.931C535.675 187.5 535.593 188.049 535.431 188.578C535.309 189.107 535.085 189.635 534.76 190.164C534.475 190.652 534.068 191.12 533.54 191.567C533.052 191.974 532.482 192.36 531.832 192.726C531.181 193.051 530.408 193.316 529.514 193.519C528.619 193.682 527.663 193.763 526.647 193.763L518.046 193.824C518.452 195.125 519.184 196.162 520.242 196.935C521.299 197.667 522.641 198.033 524.268 198.033C526.016 198.033 527.806 197.809 529.636 197.362C530.408 197.159 531.242 196.833 532.137 196.386C533.072 195.939 533.743 195.715 534.15 195.715C534.841 195.715 535.37 195.918 535.736 196.325C536.142 196.732 536.346 197.24 536.346 197.85C536.346 198.582 536.02 199.477 535.37 200.534C534.719 201.551 533.804 202.588 532.625 203.645C531.486 204.662 529.961 205.536 528.05 206.268C526.138 207 524.085 207.366 521.889 207.366ZM517.741 189.92C520.547 189.879 522.072 189.859 522.316 189.859C522.926 189.859 523.373 189.493 523.658 188.761C523.861 188.232 523.963 187.5 523.963 186.565C523.963 184.003 523.19 182.722 521.645 182.722C521.075 182.722 520.506 183.027 519.937 183.637C519.408 184.247 518.94 185.121 518.534 186.26C518.127 187.358 517.863 188.578 517.741 189.92ZM573.905 197.85C573.905 201.144 573.356 203.503 572.258 204.926C571.16 206.309 569.472 207 567.195 207C564.592 207 562.803 206.187 561.827 204.56C559.184 206.471 555.991 207.427 552.25 207.427C549.078 207.427 546.435 206.126 544.32 203.523C542.205 200.88 541.148 197.281 541.148 192.726C541.148 188.09 542.185 184.41 544.259 181.685C546.333 178.92 548.997 177.537 552.25 177.537C555.178 177.537 557.923 178.472 560.485 180.343V172.535C560.485 170.054 561.095 168.224 562.315 167.045C563.535 165.825 565.162 165.215 567.195 165.215C569.432 165.215 571.099 165.662 572.197 166.557C573.336 167.452 573.905 169.261 573.905 171.986V197.85ZM560.607 198.216L560.546 186.809C559.855 185.67 558.96 185.101 557.862 185.101C557.171 185.101 556.54 185.487 555.971 186.26C555.442 187.033 555.036 187.988 554.751 189.127C554.466 190.266 554.324 191.465 554.324 192.726C554.324 194.597 554.629 196.264 555.239 197.728C555.849 199.192 556.703 199.924 557.801 199.924C558.004 199.924 558.208 199.904 558.411 199.863C558.614 199.822 558.797 199.782 558.96 199.741C559.123 199.66 559.285 199.578 559.448 199.497C559.611 199.375 559.753 199.253 559.875 199.131C559.997 199.009 560.119 198.867 560.241 198.704C560.363 198.541 560.485 198.379 560.607 198.216ZM634.022 209.867C635.608 209.948 636.788 210.436 637.56 211.331C638.333 212.226 638.719 213.73 638.719 215.845C638.719 218.285 638.069 219.952 636.767 220.847C635.466 221.782 633.636 222.25 631.277 222.25C628.919 222.25 626.682 221.904 624.567 221.213C622.493 220.562 620.867 219.851 619.687 219.078C618.549 218.305 617.532 217.451 616.637 216.516C616.027 215.906 615.458 215.113 614.929 214.137C614.441 213.202 614.014 212.104 613.648 210.843C613.282 209.582 613.059 208.281 612.977 206.939C608.016 206.004 603.99 203.747 600.899 200.168C597.849 196.589 596.324 192.014 596.324 186.443C596.324 179.814 598.317 174.568 602.302 170.705C606.328 166.842 611.493 164.91 617.796 164.91C624.059 164.91 629.163 166.842 633.107 170.705C637.093 174.568 639.085 179.814 639.085 186.443C639.085 191.77 637.682 196.203 634.876 199.741C632.111 203.238 628.431 205.556 623.835 206.695C625.503 208.525 628.898 209.582 634.022 209.867ZM623.408 192.177C623.815 190.428 624.018 188.517 624.018 186.443C624.018 184.328 623.795 182.356 623.347 180.526C622.941 178.655 622.249 177.09 621.273 175.829C620.297 174.528 619.138 173.877 617.796 173.877C616.454 173.877 615.275 174.528 614.258 175.829C613.282 177.13 612.55 178.716 612.062 180.587C611.615 182.417 611.391 184.369 611.391 186.443C611.391 187.622 611.473 188.781 611.635 189.92C611.798 191.059 612.042 192.157 612.367 193.214C612.733 194.231 613.16 195.125 613.648 195.898C614.136 196.671 614.726 197.301 615.417 197.789C616.149 198.236 616.942 198.46 617.796 198.46C619.179 198.46 620.358 197.85 621.334 196.63C622.31 195.41 623.002 193.926 623.408 192.177ZM658.403 194.129C658.403 196.447 659.298 197.606 661.087 197.606C661.697 197.606 662.226 197.423 662.673 197.057C663.161 196.65 663.527 196.101 663.771 195.41C664.015 194.719 664.137 193.926 664.137 193.031V184.857C664.137 183.474 664.381 182.275 664.869 181.258C665.357 180.201 666.069 179.387 667.004 178.818C667.94 178.249 669.038 177.964 670.298 177.964C672.494 177.964 674.202 178.452 675.422 179.428C676.642 180.363 677.252 182.112 677.252 184.674V200.534C677.252 203.015 676.744 204.723 675.727 205.658C674.711 206.593 672.921 207.061 670.359 207.061C669.261 207.061 668.326 206.959 667.553 206.756C666.781 206.512 666.15 206.166 665.662 205.719C665.215 205.272 664.869 204.682 664.625 203.95C662.958 205.048 661.189 205.821 659.318 206.268C657.488 206.715 655.435 206.939 653.157 206.939C650.27 206.939 648.196 205.821 646.935 203.584C645.675 201.307 645.044 197.586 645.044 192.421C645.044 189.859 645.105 187.785 645.227 186.199C645.349 184.572 645.532 183.19 645.776 182.051C646.061 180.872 646.468 179.997 646.996 179.428C647.566 178.859 648.216 178.452 648.948 178.208C649.721 177.964 650.717 177.842 651.937 177.842C654.215 177.842 655.841 178.269 656.817 179.123C657.834 179.977 658.342 181.258 658.342 182.966L658.403 194.129ZM699.944 207.366C694.983 207.366 690.876 206.085 687.622 203.523C684.41 200.961 682.803 197.464 682.803 193.031C682.803 188.232 684.389 184.45 687.561 181.685C690.774 178.879 694.902 177.476 699.944 177.476C704.702 177.476 708.179 178.33 710.375 180.038C712.612 181.705 713.73 184.003 713.73 186.931C713.73 187.5 713.649 188.049 713.486 188.578C713.364 189.107 713.141 189.635 712.815 190.164C712.531 190.652 712.124 191.12 711.595 191.567C711.107 191.974 710.538 192.36 709.887 192.726C709.237 193.051 708.464 193.316 707.569 193.519C706.675 193.682 705.719 193.763 704.702 193.763L696.101 193.824C696.508 195.125 697.24 196.162 698.297 196.935C699.355 197.667 700.697 198.033 702.323 198.033C704.072 198.033 705.861 197.809 707.691 197.362C708.464 197.159 709.298 196.833 710.192 196.386C711.128 195.939 711.799 195.715 712.205 195.715C712.897 195.715 713.425 195.918 713.791 196.325C714.198 196.732 714.401 197.24 714.401 197.85C714.401 198.582 714.076 199.477 713.425 200.534C712.775 201.551 711.86 202.588 710.68 203.645C709.542 204.662 708.017 205.536 706.105 206.268C704.194 207 702.14 207.366 699.944 207.366ZM695.796 189.92C698.602 189.879 700.127 189.859 700.371 189.859C700.981 189.859 701.429 189.493 701.713 188.761C701.917 188.232 702.018 187.5 702.018 186.565C702.018 184.003 701.246 182.722 699.7 182.722C699.131 182.722 698.562 183.027 697.992 183.637C697.464 184.247 696.996 185.121 696.589 186.26C696.183 187.358 695.918 188.578 695.796 189.92ZM736.223 207.366C731.261 207.366 727.154 206.085 723.901 203.523C720.688 200.961 719.082 197.464 719.082 193.031C719.082 188.232 720.668 184.45 723.84 181.685C727.052 178.879 731.18 177.476 736.223 177.476C740.981 177.476 744.458 178.33 746.654 180.038C748.89 181.705 750.009 184.003 750.009 186.931C750.009 187.5 749.927 188.049 749.765 188.578C749.643 189.107 749.419 189.635 749.094 190.164C748.809 190.652 748.402 191.12 747.874 191.567C747.386 191.974 746.816 192.36 746.166 192.726C745.515 193.051 744.742 193.316 743.848 193.519C742.953 193.682 741.997 193.763 740.981 193.763L732.38 193.824C732.786 195.125 733.518 196.162 734.576 196.935C735.633 197.667 736.975 198.033 738.602 198.033C740.35 198.033 742.14 197.809 743.97 197.362C744.742 197.159 745.576 196.833 746.471 196.386C747.406 195.939 748.077 195.715 748.484 195.715C749.175 195.715 749.704 195.918 750.07 196.325C750.476 196.732 750.68 197.24 750.68 197.85C750.68 198.582 750.354 199.477 749.704 200.534C749.053 201.551 748.138 202.588 746.959 203.645C745.82 204.662 744.295 205.536 742.384 206.268C740.472 207 738.419 207.366 736.223 207.366ZM732.075 189.92C734.881 189.879 736.406 189.859 736.65 189.859C737.26 189.859 737.707 189.493 737.992 188.761C738.195 188.232 738.297 187.5 738.297 186.565C738.297 184.003 737.524 182.722 735.979 182.722C735.409 182.722 734.84 183.027 734.271 183.637C733.742 184.247 733.274 185.121 732.868 186.26C732.461 187.358 732.197 188.578 732.075 189.92ZM774.453 190.591C774.453 188.314 773.558 187.175 771.769 187.175C770.915 187.175 770.203 187.541 769.634 188.273C769.105 188.964 768.8 189.9 768.719 191.079V200.473C768.719 202.954 768.211 204.662 767.194 205.597C766.177 206.532 764.388 207 761.826 207C759.427 207 757.78 206.451 756.885 205.353C756.031 204.214 755.604 202.364 755.604 199.802V184.796C755.604 182.722 756.153 181.055 757.251 179.794C758.39 178.533 759.894 177.903 761.765 177.903C763.31 177.903 764.612 178.127 765.669 178.574C766.726 179.021 767.519 179.794 768.048 180.892C771.22 178.818 775.083 177.781 779.638 177.781C782.525 177.781 784.599 178.92 785.86 181.197C787.161 183.474 787.812 187.216 787.812 192.421C787.812 194.983 787.751 197.077 787.629 198.704C787.507 200.29 787.304 201.673 787.019 202.852C786.775 203.991 786.368 204.845 785.799 205.414C785.23 205.983 784.559 206.39 783.786 206.634C783.054 206.878 782.098 207 780.919 207C778.642 207 776.995 206.573 775.978 205.719C775.002 204.865 774.514 203.604 774.514 201.937L774.453 190.591Z" fill="black"/>
<defs>
<filter id="filter0_d" x="0" y="0" width="429.895" height="452" filterUnits="userSpaceOnUse" color-interpolation-filters="sRGB">
<feFlood flood-opacity="0" result="BackgroundImageFix"/>
<feColorMatrix in="SourceAlpha" type="matrix" values="0 0 0 0 0 0 0 0 0 0 0 0 0 0 0 0 0 0 127 0" result="hardAlpha"/>
<feOffset dy="4"/>
<feGaussianBlur stdDeviation="2"/>
<feComposite in2="hardAlpha" operator="out"/>
<feColorMatrix type="matrix" values="0 0 0 0 0 0 0 0 0 0 0 0 0 0 0 0 0 0 0.25 0"/>
<feBlend mode="normal" in2="BackgroundImageFix" result="effect1_dropShadow"/>
<feBlend mode="normal" in="SourceGraphic" in2="effect1_dropShadow" result="shape"/>
</filter>
<filter id="filter1_i" x="10.5032" y="6.854" width="408.887" height="434.308" filterUnits="userSpaceOnUse" color-interpolation-filters="sRGB">
<feFlood flood-opacity="0" result="BackgroundImageFix"/>
<feBlend mode="normal" in="SourceGraphic" in2="BackgroundImageFix" result="shape"/>
<feColorMatrix in="SourceAlpha" type="matrix" values="0 0 0 0 0 0 0 0 0 0 0 0 0 0 0 0 0 0 127 0" result="hardAlpha"/>
<feOffset dy="4"/>
<feGaussianBlur stdDeviation="2"/>
<feComposite in2="hardAlpha" operator="arithmetic" k2="-1" k3="1"/>
<feColorMatrix type="matrix" values="0 0 0 0 0 0 0 0 0 0 0 0 0 0 0 0 0 0 0.25 0"/>
<feBlend mode="normal" in2="shape" result="effect1_innerShadow"/>
</filter>
</defs>
</svg>
