<svg width="30" height="30" viewBox="0 0 30 30" fill="none" xmlns="http://www.w3.org/2000/svg">
<path d="M0 15.0003C0 6.71727 6.71687 0 15 0C23.2831 0 30 6.71727 30 15.0003C30 23.2827 23.2831 30 15 30C6.71687 30 0 23.2827 0 15.0003Z" fill="#47B483"/>
<path d="M23.1923 12.4911H17.4786V6.81415C17.4786 6.57219 17.2853 6.37842 17.0433 6.37842H12.9259C12.6844 6.37842 12.4906 6.57219 12.4906 6.81415V12.4911H6.81364C6.57168 12.4911 6.37842 12.6843 6.37842 12.9263V17.11C6.37842 17.3519 6.57168 17.5452 6.81364 17.5452H12.4906V23.1921C12.4906 23.434 12.6844 23.6273 12.9259 23.6273H17.0433C17.2853 23.6273 17.4786 23.434 17.4786 23.1921V17.5452H23.1923C23.4338 17.5452 23.6276 17.3519 23.6276 17.11V12.9263C23.6276 12.6843 23.4281 12.4911 23.1923 12.4911Z" fill="white"/>
</svg>
