<svg width="60" height="60" viewBox="0 0 60 60" fill="none" xmlns="http://www.w3.org/2000/svg">
<path d="M59.0882 30C59.0882 26.8697 60.6475 23.5471 59.6878 20.7284C58.7039 17.8008 55.3678 16.0023 53.5319 13.5669C51.6718 11.1082 50.9042 7.52165 48.3484 5.73365C45.8157 3.97099 42.0362 4.36704 38.9999 3.40703C36.0598 2.4956 33.2642 0 30.0115 0C26.7599 0 23.9517 2.48398 21.0242 3.40703C17.9879 4.35436 14.1958 3.95937 11.6642 5.73365C9.10827 7.52165 8.34076 11.1082 6.48058 13.5669C4.63201 16.0023 1.30861 17.8008 0.312006 20.7284C-0.636031 23.5471 0.912711 26.8697 0.912711 30C0.912711 33.1314 -0.647644 36.4539 0.312006 39.2727C1.29594 42.1992 4.63201 43.9988 6.46791 46.4331C8.32809 48.8928 9.09666 52.4794 11.6526 54.2664C14.1842 56.0417 17.9637 55.6456 21.0126 56.593C23.9517 57.5055 26.7483 60 29.9999 60C33.2515 60 36.0598 57.5171 38.9883 56.593C42.0235 55.6456 45.8157 56.0417 48.3484 54.2664C50.9042 52.4794 51.6718 48.8928 53.5319 46.4331C55.3794 43.9988 58.7039 42.1992 59.6878 39.2727C60.6475 36.4412 59.0882 33.1187 59.0882 30Z" fill="black"/>
<path d="M58.5061 29.9679C58.5061 26.8992 60.0347 23.6413 59.0943 20.8791C58.1292 18.0101 54.8605 16.2466 53.0606 13.8593C51.2384 11.4496 50.4858 7.93326 47.9803 6.1815C45.4994 4.45325 41.7951 4.84099 38.8199 3.90102C35.9387 3.00699 33.1984 0.562012 30.0118 0.562012C26.8242 0.562012 24.0732 2.99524 21.2037 3.90102C18.2286 4.82924 14.5125 4.4415 12.0306 6.1815C9.52616 7.93326 8.77356 11.4496 6.95023 13.8593C5.13972 16.2466 1.88166 18.0101 0.905943 20.8791C-0.0227983 23.6413 1.49415 26.8992 1.49415 29.9679C1.49415 33.0367 -0.0345411 36.2935 0.905943 39.0557C1.86991 41.9247 5.13972 43.6882 6.93849 46.0755C8.76181 48.4863 9.51441 52.0016 12.0188 53.7533C14.5008 55.4933 18.2051 55.1056 21.192 56.0338C24.0732 56.9278 26.8125 59.3739 30.0001 59.3739C33.1866 59.3739 35.9387 56.9396 38.8082 56.0338C41.7834 55.1056 45.4994 55.4933 47.9803 53.7533C50.4858 52.0016 51.2384 48.4863 53.0606 46.0755C54.8722 43.6882 58.1292 41.9247 59.0943 39.0557C60.0347 36.2817 58.5061 33.025 58.5061 29.9679Z" fill="#F4F6FC"/>
<path d="M45.4441 33.4358C44.3599 34.0272 43.1236 34.382 41.8821 34.4602C41.7047 34.4739 41.5274 34.4739 41.3564 34.4739C39.7664 34.4739 38.4721 34.0335 37.5716 33.5942C36.5592 34.0927 35.4422 34.3884 34.3179 34.4602C34.1479 34.4739 33.9769 34.4739 33.8058 34.4739C32.1431 34.4739 30.8097 33.9881 30.0074 33.5942C28.996 34.0927 27.8854 34.3884 26.7547 34.4602C26.5773 34.4739 26.4 34.4739 26.2289 34.4739C24.639 34.4739 23.3447 34.0335 22.4442 33.5942C21.4317 34.0927 20.3211 34.3884 19.1915 34.4602C19.0141 34.4739 18.8368 34.4739 18.6658 34.4739C16.8847 34.4739 15.4785 33.9226 14.578 33.4358C14.2697 33.2657 14.1515 32.8781 14.3225 32.5697C14.4925 32.254 14.881 32.1431 15.1893 32.3131C15.8797 32.688 17.2986 33.2921 19.1187 33.1802C20.1765 33.1147 21.2216 32.819 22.1422 32.3131C22.1422 32.3131 22.1422 32.3131 22.1486 32.3131C22.1813 32.2941 22.214 32.2804 22.2531 32.2677C22.2605 32.2677 22.2605 32.2614 22.2668 32.2614C22.3724 32.2276 22.4832 32.2276 22.5888 32.2476C22.6015 32.254 22.6215 32.254 22.6342 32.254C22.6479 32.2614 22.6606 32.2677 22.6743 32.2677C22.7007 32.2804 22.7271 32.2867 22.7524 32.3004C22.7524 32.3004 22.7524 32.3004 22.7598 32.3004C23.4429 32.6743 24.8692 33.2784 26.6892 33.1675C27.7471 33.101 28.7922 32.8063 29.7118 32.3004C29.7445 32.2804 29.7772 32.2677 29.8173 32.254C29.8237 32.254 29.83 32.2476 29.83 32.2476C29.8627 32.235 29.9028 32.2276 29.9419 32.2276C29.9482 32.2276 29.9482 32.2276 29.9546 32.2276C29.9947 32.2212 30.0337 32.2212 30.0802 32.2276C30.0992 32.2276 30.1193 32.235 30.1393 32.2413C30.1594 32.2476 30.1847 32.2476 30.2048 32.254C30.2174 32.2614 30.2312 32.2677 30.2438 32.2677C30.2702 32.2804 30.2966 32.2867 30.323 32.3004H30.3293C31.0135 32.6743 32.4387 33.2784 34.2524 33.1675C35.3102 33.101 36.3554 32.8063 37.2749 32.3004C37.3087 32.2804 37.3478 32.2677 37.3805 32.254C37.3868 32.254 37.3868 32.2476 37.3942 32.2476C37.4333 32.235 37.4724 32.2276 37.5125 32.2212C37.5716 32.2149 37.637 32.2212 37.7025 32.235C37.7226 32.2413 37.7426 32.2413 37.7616 32.2476C37.7753 32.254 37.7817 32.254 37.7944 32.2614C37.8207 32.274 37.8535 32.2804 37.8799 32.2941C37.8799 32.2941 37.8799 32.2941 37.8862 32.2941C38.5766 32.668 39.9966 33.2657 41.8166 33.1601C42.8745 33.0946 43.9196 32.7989 44.8392 32.2941C45.1474 32.123 45.5423 32.2413 45.7133 32.5497C45.8706 32.8781 45.7587 33.2657 45.4441 33.4358ZM14.407 30.6191C14.407 30.2642 14.6962 29.9759 15.051 29.9759H44.6555C45.0102 29.9759 45.2995 30.2642 45.2995 30.6191C45.2995 30.974 45.0102 31.2623 44.6555 31.2623H15.051C14.6962 31.2559 14.407 30.974 14.407 30.6191ZM44.2606 35.4846C44.2606 41.4538 37.8144 46.313 29.8828 46.313C21.9575 46.313 15.5049 41.4538 15.5049 35.4846C15.5049 35.1308 15.7942 34.8414 16.1489 34.8414C16.5036 34.8414 16.7929 35.1308 16.7929 35.4846C16.7929 40.7515 22.668 45.033 29.8828 45.033C37.0976 45.033 42.9727 40.7515 42.9727 35.4846C42.9727 35.1308 43.2619 34.8414 43.6166 34.8414C43.9714 34.8414 44.2606 35.1308 44.2606 35.4846ZM26.1571 15.3065L17.8307 22.7532C19.3425 19.1867 22.3977 16.4228 26.1571 15.3065ZM31.5846 14.8798L21.1953 24.1715H18.1727L28.6212 14.827C29.035 14.7879 29.4626 14.7679 29.8891 14.7679C30.4613 14.7615 31.0261 14.8069 31.5846 14.8798ZM42.4469 24.1715H39.6408L41.7375 22.3001C42.0204 22.8968 42.2569 23.5273 42.4469 24.1715ZM41.1135 21.131L37.7162 24.1715H34.0951L39.6809 19.1803C40.213 19.7844 40.6923 20.435 41.1135 21.131ZM38.7804 18.2615L32.1695 24.1715H28.5093L36.802 16.7513C37.5125 17.1906 38.1691 17.6965 38.7804 18.2615ZM35.6196 16.088L26.5837 24.1715H23.1146L33.1682 15.1819C34.0223 15.4047 34.8436 15.7131 35.6196 16.088ZM16.8119 27.2047C16.8383 26.6069 16.9111 26.0292 17.0167 25.4579H42.7562C42.8608 26.0292 42.9336 26.6133 42.96 27.2047H16.8119ZM15.5113 27.8479C15.5113 28.2027 15.8005 28.4921 16.1552 28.4921H43.623C43.9777 28.4921 44.267 28.2027 44.267 27.8479C44.267 26.778 44.1424 25.7335 43.9196 24.7291C43.9123 24.6901 43.9059 24.651 43.8932 24.6109C43.2947 22.0371 42.0003 19.7189 40.2257 17.8802C40.2193 17.8676 40.213 17.8538 40.2067 17.8475C40.1739 17.8148 40.1476 17.782 40.1074 17.762C37.4987 15.1227 33.8776 13.4805 29.8828 13.4805C29.337 13.4805 28.8049 13.5143 28.2791 13.5724C28.2665 13.5724 28.2527 13.5724 28.2401 13.5797C22.1549 14.2757 17.2131 18.7801 15.8723 24.6436C15.866 24.6637 15.8596 24.6837 15.8596 24.7091C15.6358 25.7208 15.5113 26.7653 15.5113 27.8479Z" fill="black"/>
<path d="M18.322 6.74257C18.2428 6.74996 18.1742 6.77847 18.114 6.82811C18.0528 6.87775 18.0116 6.94006 17.9895 7.01504L17.0372 10.2045L14.0485 9.04067C14.0896 8.94457 14.1192 8.84529 14.1382 8.74179C14.1561 8.63829 14.1635 8.53374 14.1583 8.42813C14.154 8.32251 14.1371 8.21901 14.1097 8.11552C14.0812 8.01307 14.0421 7.91485 13.9925 7.8198C13.9418 7.72581 13.8827 7.6371 13.813 7.55577C13.7434 7.4734 13.6663 7.40053 13.5808 7.3361C13.4963 7.27062 13.4055 7.21676 13.3084 7.1724C13.2113 7.12805 13.112 7.09425 13.0086 7.07207C12.9051 7.0499 12.8006 7.04039 12.695 7.04145C12.5905 7.04356 12.4871 7.05729 12.3868 7.08158C12.2854 7.10693 12.1883 7.14283 12.0964 7.19036C12.0035 7.23788 11.918 7.29491 11.8399 7.36251C11.7607 7.4301 11.691 7.50508 11.6298 7.58957C11.5686 7.673 11.5179 7.76277 11.4767 7.85888C11.4366 7.95499 11.4071 8.05426 11.3891 8.15776C11.3701 8.26126 11.3648 8.36581 11.3701 8.47143C11.3754 8.57704 11.3923 8.68159 11.4208 8.78404C11.4493 8.88648 11.4894 8.9847 11.5401 9.07869C11.5907 9.17374 11.6509 9.2614 11.7206 9.34272C11.7903 9.42404 11.8673 9.49691 11.9529 9.56134C12.0394 9.6247 12.1302 9.67962 12.2273 9.72292C12.3245 9.76728 12.4248 9.80002 12.5282 9.82114C12.6317 9.84226 12.7362 9.85177 12.8407 9.84966C12.9452 9.84754 13.0487 9.83381 13.149 9.80741L13.8299 12.943L10.5329 13.3824C10.4548 13.3929 10.3872 13.4235 10.3292 13.4753C10.2711 13.5281 10.232 13.5915 10.213 13.6686C10.193 13.7446 10.1961 13.8206 10.2215 13.8967C10.2479 13.9727 10.2912 14.0361 10.3534 14.0878L15.1095 17.9754C15.0514 18.0483 15.024 18.1317 15.0271 18.2257C15.0292 18.3197 15.062 18.4031 15.1232 18.4771L15.916 19.4054C15.9509 19.4466 15.992 19.4793 16.0396 19.5047C16.0871 19.5289 16.1367 19.5437 16.1895 19.549C16.2423 19.5543 16.294 19.549 16.3447 19.5332C16.3943 19.5184 16.4386 19.493 16.4787 19.4592L23.0559 13.8428C23.0949 13.809 23.1266 13.7689 23.1498 13.7214C23.1731 13.6749 23.1868 13.6242 23.19 13.5714C23.1931 13.5186 23.1857 13.4668 23.1688 13.4162C23.1519 13.3655 23.1256 13.319 23.0907 13.2778L22.2979 12.3495C22.2356 12.2777 22.1585 12.2323 22.0656 12.2154C21.9727 12.1974 21.8861 12.2111 21.8059 12.2565L18.7148 6.94745C18.6736 6.87775 18.6176 6.82494 18.5469 6.78798C18.4751 6.74996 18.4001 6.73517 18.322 6.74257ZM12.372 7.98561C12.4322 7.93492 12.4987 7.8969 12.5747 7.87367C12.6496 7.85043 12.7267 7.84304 12.8059 7.85043C12.8851 7.85782 12.96 7.88 13.0318 7.91802C13.1025 7.95499 13.1648 8.00462 13.2166 8.06693C13.2693 8.12819 13.3084 8.19684 13.3348 8.27288C13.3601 8.34997 13.3707 8.42707 13.3654 8.50733C13.3612 8.58654 13.3411 8.66153 13.3063 8.73229C13.2715 8.80199 13.2239 8.86324 13.1648 8.91394C13.1057 8.96463 13.0381 9.0016 12.9632 9.02483C12.8882 9.04806 12.8112 9.05651 12.732 9.04806C12.6528 9.04067 12.5768 9.01849 12.5061 8.98047C12.4343 8.94351 12.373 8.89387 12.3202 8.83262C12.2675 8.77031 12.2284 8.70166 12.2031 8.62562C12.1767 8.54958 12.1661 8.47143 12.1714 8.39222C12.1767 8.31301 12.1957 8.23802 12.2305 8.16726C12.2654 8.09651 12.3129 8.03631 12.372 7.98561ZM22.2282 13.4795L16.2496 18.5848L15.9857 18.2753L21.9643 13.1701L22.2282 13.4795ZM21.1883 12.7624L15.7049 17.4442L11.5601 14.0593L14.3757 13.6834C14.4296 13.676 14.4792 13.6591 14.5246 13.6305C14.571 13.602 14.6091 13.5661 14.6397 13.5218C14.6692 13.4774 14.6903 13.4288 14.7009 13.375C14.7104 13.3222 14.7104 13.2683 14.6988 13.2144L13.9725 9.86022L17.1671 11.1054C17.2188 11.1254 17.2716 11.1349 17.3265 11.1328C17.3803 11.1307 17.4321 11.1191 17.4806 11.0959C17.5292 11.0726 17.5703 11.0399 17.6062 10.9998C17.6411 10.9586 17.6664 10.9121 17.6823 10.8604L18.4962 8.13558L21.1883 12.7624Z" fill="black"/>
</svg>
