<svg width="30" height="30" viewBox="0 0 30 30" fill="none" xmlns="http://www.w3.org/2000/svg">
<path d="M23.2499 9.00013H18.7501C18.7501 8.87734 18.7439 8.75454 18.732 8.63227C18.72 8.50999 18.7019 8.38875 18.6781 8.26855C18.6537 8.14783 18.6242 8.02918 18.5884 7.91157C18.5527 7.79395 18.5118 7.67841 18.4646 7.56495C18.4175 7.45148 18.3651 7.3406 18.3071 7.23231C18.2491 7.12403 18.1864 7.01885 18.118 6.91678C18.0496 6.81419 17.9765 6.71575 17.8988 6.62094C17.8206 6.52612 17.7382 6.43493 17.6517 6.34841C17.5646 6.26136 17.474 6.17898 17.3792 6.10127C17.2838 6.02303 17.1854 5.94998 17.0833 5.8821C16.9812 5.81371 16.8761 5.7505 16.7678 5.69299C16.6595 5.63496 16.5486 5.58263 16.4351 5.53548C16.3217 5.48833 16.2061 5.44688 16.0885 5.41165C15.9709 5.3759 15.8517 5.34585 15.7315 5.32202C15.6108 5.29818 15.4896 5.28005 15.3673 5.26813C15.245 5.25622 15.1228 5.25 15 5.25C14.8772 5.25 14.7544 5.25622 14.6326 5.26813C14.5103 5.28005 14.3886 5.29818 14.2684 5.32202C14.1477 5.34585 14.029 5.3759 13.9114 5.41165C13.7938 5.44688 13.6782 5.48833 13.5648 5.53548C13.4513 5.58263 13.3404 5.63496 13.2321 5.69299C13.1239 5.7505 13.0187 5.81371 12.9166 5.8821C12.8145 5.94998 12.7161 6.02303 12.6208 6.10127C12.526 6.17898 12.4353 6.26136 12.3482 6.34841C12.2612 6.43493 12.1788 6.52612 12.1011 6.62094C12.0234 6.71575 11.9503 6.81419 11.8819 6.91678C11.8135 7.01885 11.7509 7.12403 11.6928 7.23231C11.6348 7.3406 11.5825 7.45148 11.5353 7.56495C11.4882 7.67841 11.4472 7.79395 11.4115 7.91157C11.3757 8.02918 11.3457 8.14783 11.3219 8.26855C11.298 8.38875 11.2799 8.50999 11.268 8.63227C11.2561 8.75454 11.2498 8.87734 11.2498 9.00013H6.74999C6.70077 9.00013 6.65206 9.00479 6.60336 9.01464C6.55518 9.02396 6.50855 9.03795 6.46295 9.05712C6.41736 9.07577 6.37435 9.09909 6.33342 9.12655C6.29249 9.15349 6.25415 9.18458 6.21944 9.21981C6.18472 9.25452 6.15364 9.29235 6.12618 9.33328C6.09872 9.37421 6.07592 9.41721 6.05675 9.46281C6.0381 9.5084 6.02411 9.55555 6.01426 9.60374C6.00494 9.65192 5.99976 9.70062 5.99976 9.74984C5.99976 9.79907 6.00494 9.84777 6.01426 9.89647C6.02411 9.94466 6.0381 9.99129 6.05675 10.0369C6.07592 10.0825 6.09872 10.1255 6.12618 10.1664C6.15364 10.2073 6.18472 10.2457 6.21944 10.2804C6.25415 10.3151 6.29249 10.3462 6.33342 10.3737C6.37435 10.4011 6.41736 10.4239 6.46295 10.4431C6.50855 10.4617 6.55518 10.4757 6.60336 10.4856C6.65206 10.4954 6.70077 10.5001 6.74999 10.5001H7.4997V20.6132C7.50022 20.7733 7.50799 20.9329 7.52406 21.0919C7.5396 21.251 7.56343 21.409 7.59452 21.566C7.62612 21.723 7.66498 21.8779 7.71161 22.0313C7.75824 22.1841 7.81213 22.3344 7.87327 22.4826C7.9344 22.6302 8.0028 22.7748 8.07844 22.9157C8.15409 23.0566 8.23595 23.1939 8.32506 23.3271C8.41418 23.4597 8.50951 23.5882 8.61055 23.7121C8.7121 23.8354 8.81987 23.954 8.93282 24.067C9.04576 24.1804 9.16441 24.2877 9.28824 24.3892C9.41156 24.4908 9.54005 24.5861 9.6732 24.6747C9.80584 24.7638 9.94314 24.8462 10.0841 24.9213C10.2255 24.997 10.3696 25.0654 10.5177 25.1265C10.6654 25.1882 10.8157 25.2421 10.969 25.2887C11.1219 25.3348 11.2768 25.3742 11.4338 25.4053C11.5908 25.4369 11.7488 25.4602 11.9078 25.4762C12.0674 25.4918 12.227 25.5001 12.3871 25.5001H17.6128C17.7729 25.5001 17.9325 25.4918 18.0916 25.4762C18.2511 25.4602 18.4092 25.4369 18.5662 25.4053C18.7232 25.3742 18.8781 25.3348 19.0309 25.2887C19.1843 25.2421 19.3345 25.1882 19.4822 25.1265C19.6304 25.0654 19.7744 24.997 19.9159 24.9213C20.0568 24.8462 20.1936 24.7638 20.3267 24.6747C20.4599 24.5861 20.5884 24.4908 20.7117 24.3892C20.8355 24.2877 20.9542 24.1804 21.0671 24.067C21.1801 23.954 21.2873 23.8354 21.3889 23.7121C21.4904 23.5882 21.5857 23.4597 21.6749 23.3271C21.7635 23.1939 21.8458 23.0566 21.9215 22.9157C21.9966 22.7748 22.065 22.6302 22.1267 22.4826C22.1878 22.3344 22.2417 22.1841 22.2883 22.0313C22.3349 21.8779 22.3738 21.723 22.4054 21.566C22.4365 21.409 22.4603 21.251 22.4759 21.0919C22.4919 20.9329 22.4997 20.7733 22.5002 20.6132V10.5001H23.2499C23.2992 10.5001 23.3479 10.4954 23.396 10.4856C23.4447 10.4757 23.4914 10.4617 23.537 10.4431C23.5826 10.4239 23.6256 10.4011 23.6665 10.3737C23.7074 10.3462 23.7453 10.3151 23.7805 10.2804C23.8152 10.2457 23.8463 10.2073 23.8737 10.1664C23.9007 10.1255 23.924 10.0825 23.9427 10.0369C23.9618 9.99129 23.9758 9.94466 23.9857 9.89647C23.995 9.84777 24.0002 9.79907 24.0002 9.74984C24.0002 9.70062 23.995 9.65192 23.9857 9.60374C23.9758 9.55555 23.9618 9.5084 23.9427 9.46281C23.924 9.41721 23.9007 9.37421 23.8737 9.33328C23.8463 9.29235 23.8152 9.25452 23.7805 9.21981C23.7453 9.18458 23.7074 9.15349 23.6665 9.12655C23.6256 9.09909 23.5826 9.07577 23.537 9.05712C23.4914 9.03795 23.4447 9.02396 23.396 9.01464C23.3479 9.00479 23.2992 9.00013 23.2499 9.00013ZM15 6.74995C15.0735 6.74995 15.1471 6.75358 15.2207 6.76083C15.2937 6.76808 15.3668 6.77896 15.4388 6.79295C15.5113 6.80746 15.5823 6.82559 15.6533 6.84684C15.7238 6.86808 15.7927 6.89295 15.8611 6.92144C15.9289 6.94942 15.9958 6.98103 16.0605 7.01574C16.1258 7.05046 16.1885 7.08828 16.2502 7.12921C16.3113 7.17014 16.3704 7.21418 16.4274 7.26081C16.4844 7.30744 16.5388 7.35666 16.5911 7.40899C16.6429 7.46132 16.6927 7.51572 16.7393 7.57272C16.7859 7.62971 16.83 7.68878 16.8709 7.74991C16.9118 7.81105 16.9496 7.87426 16.9844 7.93954C17.0191 8.00431 17.0507 8.07063 17.0786 8.13902C17.1066 8.20689 17.1315 8.27632 17.1533 8.34678C17.1745 8.41725 17.1921 8.48875 17.2066 8.56077C17.2211 8.6333 17.232 8.70584 17.2393 8.77941C17.2465 8.85298 17.2501 8.92604 17.2501 9.00013H12.7498C12.7498 8.92604 12.7534 8.85298 12.7607 8.77941C12.7679 8.70584 12.7788 8.6333 12.7933 8.56077C12.8073 8.48875 12.8254 8.41725 12.8467 8.34678C12.8684 8.27632 12.8928 8.20689 12.9213 8.13902C12.9493 8.07063 12.9809 8.00431 13.0156 7.93954C13.0503 7.87426 13.0881 7.81105 13.129 7.74991C13.17 7.68878 13.214 7.62971 13.2606 7.57272C13.3073 7.51572 13.357 7.46132 13.4088 7.40899C13.4612 7.35666 13.5156 7.30744 13.5726 7.26081C13.6295 7.21418 13.6886 7.17014 13.7497 7.12921C13.8114 7.08828 13.8741 7.05046 13.9394 7.01574C14.0041 6.98103 14.071 6.94942 14.1389 6.92144C14.2067 6.89295 14.2762 6.86808 14.3466 6.84684C14.4171 6.82559 14.4886 6.80746 14.5611 6.79295C14.6331 6.77896 14.7062 6.76808 14.7792 6.76083C14.8528 6.75358 14.9264 6.74995 15 6.74995ZM20.9998 20.6132C20.9998 20.7241 20.9941 20.8344 20.9832 20.9448C20.9723 21.0552 20.9562 21.165 20.9345 21.2738C20.9127 21.3821 20.8858 21.4899 20.8531 21.5961C20.821 21.7018 20.7837 21.8064 20.7412 21.9085C20.6987 22.0111 20.6511 22.1111 20.5987 22.209C20.5464 22.3069 20.4894 22.4017 20.4278 22.494C20.3666 22.5862 20.3003 22.6748 20.2298 22.7608C20.1599 22.8463 20.0853 22.9287 20.007 23.0069C19.9283 23.0851 19.8464 23.1597 19.7604 23.2302C19.6749 23.3007 19.5858 23.3665 19.4936 23.4281C19.4014 23.4898 19.3065 23.5468 19.2086 23.5991C19.1112 23.6514 19.0107 23.6986 18.9086 23.7411C18.806 23.7836 18.7019 23.8209 18.5957 23.8535C18.4895 23.8856 18.3822 23.9126 18.2734 23.9343C18.1646 23.9561 18.0553 23.9727 17.9449 23.9835C17.8346 23.9944 17.7237 24.0001 17.6128 24.0001H12.3871C12.2762 24.0001 12.1653 23.9944 12.055 23.9835C11.9446 23.9727 11.8353 23.9561 11.7265 23.9343C11.6177 23.9126 11.5104 23.8856 11.4042 23.8535C11.298 23.8209 11.1939 23.7836 11.0913 23.7411C10.9887 23.6986 10.8887 23.6514 10.7908 23.5991C10.6934 23.5468 10.598 23.4898 10.5063 23.4281C10.4141 23.3665 10.325 23.3007 10.239 23.2302C10.1535 23.1597 10.0716 23.0851 9.99288 23.0069C9.91465 22.9287 9.84004 22.8463 9.77009 22.7608C9.69963 22.6748 9.63331 22.5862 9.57165 22.494C9.51 22.4017 9.453 22.3069 9.40119 22.209C9.34886 22.1111 9.3012 22.0111 9.25871 21.9085C9.21623 21.8064 9.17892 21.7018 9.1468 21.5961C9.11416 21.4899 9.08721 21.3821 9.06545 21.2738C9.04369 21.165 9.02763 21.0552 9.01675 20.9448C9.00535 20.8344 9.00017 20.7241 8.99965 20.6132V10.5001H20.9998V20.6132Z" fill="#C64040"/>
<path d="M12.7497 20.25C12.7989 20.25 12.8476 20.2454 12.8963 20.2355C12.9445 20.2262 12.9912 20.2117 13.0368 20.193C13.0823 20.1739 13.1253 20.1511 13.1663 20.1236C13.2077 20.0961 13.2456 20.0651 13.2803 20.0303C13.315 19.9956 13.3461 19.9578 13.3735 19.9169C13.401 19.8759 13.4238 19.8324 13.443 19.7868C13.4616 19.7418 13.4756 19.6946 13.4854 19.6464C13.4953 19.5982 13.4999 19.5495 13.4999 19.4998V14.2502C13.4999 14.201 13.4953 14.1518 13.4854 14.1036C13.4756 14.0554 13.4616 14.0083 13.443 13.9632C13.4238 13.9176 13.401 13.8741 13.3735 13.8331C13.3461 13.7922 13.315 13.7544 13.2803 13.7197C13.2456 13.685 13.2077 13.6539 13.1663 13.6264C13.1253 13.599 13.0823 13.5762 13.0368 13.557C12.9912 13.5383 12.9445 13.5238 12.8963 13.5145C12.8476 13.5047 12.7989 13.5 12.7497 13.5C12.7005 13.5 12.6518 13.5047 12.6036 13.5145C12.5554 13.5238 12.5083 13.5383 12.4627 13.557C12.4171 13.5762 12.3741 13.599 12.3331 13.6264C12.2922 13.6539 12.2544 13.685 12.2197 13.7197C12.1844 13.7544 12.1534 13.7922 12.1264 13.8331C12.099 13.8741 12.0756 13.9176 12.057 13.9632C12.0383 14.0083 12.0238 14.0554 12.0145 14.1036C12.0047 14.1518 12 14.201 12 14.2502V19.4998C12 19.5495 12.0047 19.5982 12.0145 19.6464C12.0238 19.6946 12.0383 19.7418 12.057 19.7868C12.0756 19.8324 12.099 19.8759 12.1264 19.9169C12.1534 19.9578 12.1844 19.9956 12.2197 20.0303C12.2544 20.0651 12.2922 20.0961 12.3331 20.1236C12.3741 20.1511 12.4171 20.1739 12.4627 20.193C12.5083 20.2117 12.5554 20.2262 12.6036 20.2355C12.6518 20.2454 12.7005 20.25 12.7497 20.25Z" fill="#C64040"/>
<path d="M17.2502 20.25C17.2995 20.25 17.3482 20.2454 17.3963 20.2355C17.4445 20.2262 17.4917 20.2117 17.5373 20.193C17.5823 20.1739 17.6259 20.1511 17.6668 20.1236C17.7077 20.0961 17.7456 20.0651 17.7803 20.0303C17.815 19.9956 17.8461 19.9578 17.8735 19.9169C17.901 19.8759 17.9243 19.8324 17.943 19.7868C17.9616 19.7418 17.9761 19.6946 17.9854 19.6464C17.9953 19.5982 17.9999 19.5495 17.9999 19.4998V14.2502C17.9999 14.201 17.9953 14.1518 17.9854 14.1036C17.9761 14.0554 17.9616 14.0083 17.943 13.9632C17.9243 13.9176 17.901 13.8741 17.8735 13.8331C17.8461 13.7922 17.815 13.7544 17.7803 13.7197C17.7456 13.685 17.7077 13.6539 17.6668 13.6264C17.6259 13.599 17.5823 13.5762 17.5373 13.557C17.4917 13.5383 17.4445 13.5238 17.3963 13.5145C17.3482 13.5047 17.2995 13.5 17.2502 13.5C17.201 13.5 17.1518 13.5047 17.1036 13.5145C17.0554 13.5238 17.0083 13.5383 16.9632 13.557C16.9176 13.5762 16.8741 13.599 16.8331 13.6264C16.7922 13.6539 16.7544 13.685 16.7197 13.7197C16.685 13.7544 16.6539 13.7922 16.6264 13.8331C16.599 13.8741 16.5762 13.9176 16.557 13.9632C16.5383 14.0083 16.5238 14.0554 16.5145 14.1036C16.5047 14.1518 16.5 14.201 16.5 14.2502V19.4998C16.5 19.5495 16.5047 19.5982 16.5145 19.6464C16.5238 19.6946 16.5383 19.7418 16.557 19.7868C16.5762 19.8324 16.599 19.8759 16.6264 19.9169C16.6539 19.9578 16.685 19.9956 16.7197 20.0303C16.7544 20.0651 16.7922 20.0961 16.8331 20.1236C16.8741 20.1511 16.9176 20.1739 16.9632 20.193C17.0083 20.2117 17.0554 20.2262 17.1036 20.2355C17.1518 20.2454 17.201 20.25 17.2502 20.25Z" fill="#C64040"/>
<path d="M15 0C14.7544 0 14.5093 0.00621737 14.2638 0.0181341C14.0187 0.0300508 13.7741 0.0481848 13.5296 0.0720182C13.2856 0.0963698 13.042 0.126421 12.799 0.162171C12.556 0.198439 12.3146 0.240406 12.0737 0.288073C11.8328 0.336258 11.5934 0.389624 11.355 0.449725C11.1172 0.509309 10.8805 0.574591 10.6457 0.646092C10.4105 0.717074 10.1779 0.794273 9.94681 0.876654C9.71521 0.959552 9.48672 1.04763 9.25978 1.14193C9.03285 1.23571 8.8085 1.33519 8.58675 1.44036C8.36448 1.54502 8.14531 1.65538 7.92874 1.77144C7.71269 1.88698 7.4987 2.0077 7.28835 2.13412C7.07799 2.26003 6.87023 2.39163 6.66661 2.52789C6.46247 2.66416 6.26144 2.8056 6.06456 2.95171C5.86715 3.09834 5.6739 3.24911 5.48427 3.40506C5.29412 3.5605 5.10863 3.72111 4.92677 3.88588C4.7444 4.05064 4.56668 4.22006 4.39311 4.39363C4.21954 4.5672 4.05064 4.74491 3.88588 4.92677C3.7206 5.10863 3.5605 5.29412 3.40455 5.48427C3.24911 5.6739 3.09782 5.86715 2.95171 6.06456C2.8056 6.26196 2.66416 6.46247 2.52789 6.66661C2.39163 6.87075 2.26003 7.07799 2.13412 7.28835C2.0077 7.49922 1.88698 7.71269 1.77092 7.92926C1.65538 8.14583 1.54502 8.365 1.43985 8.58675C1.33519 8.8085 1.23571 9.03285 1.14193 9.25978C1.04763 9.48672 0.959552 9.71573 0.876654 9.94681C0.794273 10.1779 0.717074 10.411 0.645574 10.6457C0.574592 10.8805 0.509309 11.1172 0.449207 11.3556C0.389624 11.5934 0.336258 11.8328 0.288073 12.0737C0.240406 12.3146 0.198439 12.556 0.162171 12.799C0.126421 13.042 0.0963696 13.2856 0.0720182 13.5296C0.0481848 13.7741 0.0300507 14.0187 0.0181341 14.2643C0.00569928 14.5093 0 14.7544 0 15C0 15.2456 0.00569928 15.4907 0.0181341 15.7362C0.0300507 15.9813 0.0481848 16.2259 0.0720182 16.4704C0.0963696 16.7144 0.126421 16.958 0.162171 17.201C0.198439 17.444 0.240406 17.6859 0.288073 17.9263C0.336258 18.1672 0.389624 18.4066 0.449207 18.645C0.509309 18.8828 0.574592 19.1195 0.645574 19.3543C0.717074 19.5895 0.794273 19.8221 0.876654 20.0537C0.959552 20.2848 1.04763 20.5138 1.14193 20.7402C1.23571 20.9672 1.33519 21.1915 1.43985 21.4132C1.54502 21.6355 1.65538 21.8547 1.77092 22.0713C1.88698 22.2873 2.0077 22.5013 2.13412 22.7117C2.26003 22.922 2.39163 23.1298 2.52789 23.3339C2.66416 23.538 2.8056 23.7386 2.95171 23.9354C3.09782 24.1328 3.24911 24.3261 3.40455 24.5163C3.5605 24.7059 3.7206 24.8914 3.88588 25.0737C4.05064 25.2556 4.21954 25.4333 4.39311 25.6069C4.56668 25.7805 4.7444 25.9494 4.92677 26.1146C5.10863 26.2794 5.29412 26.4395 5.48427 26.5955C5.6739 26.7509 5.86715 26.9022 6.06456 27.0483C6.26144 27.1944 6.46247 27.3358 6.66661 27.4721C6.87023 27.6084 7.07799 27.74 7.28835 27.8659C7.4987 27.9923 7.71269 28.113 7.92874 28.2291C8.14531 28.3446 8.36448 28.455 8.58675 28.5602C8.8085 28.6648 9.03285 28.7643 9.25978 28.8586C9.48672 28.9524 9.71521 29.0404 9.94681 29.1233C10.1779 29.2062 10.4105 29.2829 10.6457 29.3544C10.8805 29.4254 11.1172 29.4912 11.355 29.5508C11.5934 29.6104 11.8328 29.6643 12.0737 29.7119C12.3146 29.7596 12.556 29.8016 12.799 29.8378C13.042 29.8736 13.2856 29.9036 13.5296 29.928C13.7741 29.9518 14.0187 29.9699 14.2638 29.9819C14.5093 29.9943 14.7544 30 15 30C15.2456 30 15.4907 29.9943 15.7362 29.9819C15.9813 29.9699 16.2259 29.9518 16.4704 29.928C16.7144 29.9036 16.958 29.8736 17.201 29.8378C17.444 29.8016 17.6854 29.7596 17.9263 29.7119C18.1672 29.6643 18.4066 29.6104 18.645 29.5508C18.8828 29.4912 19.1195 29.4254 19.3543 29.3544C19.589 29.2829 19.8221 29.2062 20.0532 29.1233C20.2843 29.0404 20.5133 28.9524 20.7402 28.8586C20.9672 28.7643 21.1915 28.6648 21.4132 28.5602C21.635 28.455 21.8547 28.3446 22.0707 28.2291C22.2873 28.113 22.5008 27.9923 22.7117 27.8659C22.922 27.74 23.1293 27.6084 23.3334 27.4721C23.5375 27.3358 23.7386 27.1944 23.9354 27.0483C24.1328 26.9022 24.3261 26.7509 24.5157 26.5955C24.7059 26.4395 24.8914 26.2794 25.0732 26.1146C25.2551 25.9494 25.4328 25.7805 25.6069 25.6069C25.7805 25.4333 25.9494 25.2556 26.1141 25.0737C26.2794 24.8914 26.4395 24.7059 26.5949 24.5163C26.7509 24.3261 26.9017 24.1328 27.0483 23.9354C27.1944 23.7386 27.3358 23.538 27.4721 23.3339C27.6084 23.1298 27.74 22.922 27.8659 22.7117C27.9923 22.5013 28.113 22.2873 28.2291 22.0713C28.3446 21.8547 28.455 21.6355 28.5596 21.4132C28.6648 21.1915 28.7643 20.9672 28.8581 20.7402C28.9524 20.5138 29.0404 20.2848 29.1233 20.0537C29.2057 19.8221 29.2829 19.5895 29.3539 19.3543C29.4254 19.1195 29.4907 18.8828 29.5503 18.645C29.6104 18.4066 29.6637 18.1672 29.7119 17.9263C29.7596 17.6859 29.8016 17.444 29.8378 17.201C29.8736 16.958 29.9036 16.7144 29.928 16.4704C29.9518 16.2259 29.9699 15.9813 29.9819 15.7362C29.9938 15.4907 30 15.2456 30 15C30 14.7544 29.9933 14.5093 29.9813 14.2643C29.9689 14.0192 29.9508 13.7747 29.9264 13.5301C29.9021 13.2861 29.8715 13.0426 29.8352 12.8001C29.7995 12.5571 29.757 12.3156 29.7088 12.0747C29.6612 11.8343 29.6067 11.5949 29.5472 11.3571C29.4871 11.1188 29.4218 10.8825 29.3503 10.6478C29.2788 10.4131 29.2016 10.18 29.1192 9.94888C29.0363 9.7178 28.9477 9.48931 28.8534 9.26237C28.7596 9.03596 28.6601 8.81161 28.555 8.58986C28.4498 8.3681 28.3394 8.14894 28.2239 7.93237C28.1078 7.71631 27.9871 7.50285 27.8607 7.29249C27.7343 7.08162 27.6032 6.87437 27.4669 6.67075C27.3301 6.46662 27.1892 6.2661 27.0426 6.0687C26.8965 5.87182 26.7457 5.67856 26.5898 5.48893C26.4343 5.2993 26.2737 5.11329 26.1089 4.93144C25.9442 4.74958 25.7753 4.57186 25.6017 4.39829C25.4281 4.22472 25.2504 4.05582 25.0686 3.89106C24.8867 3.7263 24.7012 3.56568 24.5111 3.41024C24.3214 3.25429 24.1282 3.10352 23.9313 2.95741C23.7339 2.81078 23.5334 2.66986 23.3292 2.53307C23.1256 2.39681 22.9184 2.26572 22.708 2.1393C22.4971 2.01288 22.2837 1.89216 22.0676 1.7761C21.8511 1.66056 21.6319 1.55021 21.4101 1.44503C21.1884 1.33985 20.964 1.24037 20.7376 1.14659C20.5107 1.0523 20.2822 0.963697 20.0511 0.881317C19.82 0.798418 19.5869 0.721219 19.3522 0.649718C19.1175 0.578218 18.8812 0.512936 18.6434 0.452834C18.4051 0.393251 18.1657 0.339366 17.9253 0.291182C17.6844 0.242997 17.4429 0.201029 17.1999 0.164761C16.9574 0.128493 16.7139 0.0979241 16.4699 0.0735726C16.2253 0.0497393 15.9808 0.031087 15.7357 0.0186522C15.4907 0.00673548 15.2456 0.000518084 15 0ZM15 28.5001C14.7793 28.5001 14.558 28.4949 14.3373 28.484C14.1171 28.4731 13.8964 28.457 13.6767 28.4353C13.457 28.4135 13.2379 28.3866 13.0192 28.3539C12.8006 28.3218 12.583 28.284 12.3664 28.241C12.1493 28.1975 11.9338 28.1493 11.7198 28.0954C11.5053 28.042 11.2924 27.983 11.081 27.9187C10.8696 27.8545 10.6597 27.7856 10.452 27.711C10.2437 27.6364 10.038 27.5571 9.83386 27.4726C9.62972 27.3882 9.42765 27.2985 9.22818 27.2042C9.02819 27.1094 8.83078 27.0105 8.63597 26.9063C8.44116 26.8022 8.24894 26.6929 8.05931 26.5794C7.87019 26.4659 7.68367 26.3478 7.49974 26.225C7.31581 26.1022 7.1355 25.9753 6.95779 25.8437C6.78059 25.7121 6.60651 25.5758 6.43553 25.4359C6.26507 25.2955 6.09772 25.1515 5.93399 25.0028C5.77027 24.8546 5.61017 24.7023 5.45422 24.5463C5.29774 24.3898 5.14542 24.2297 4.99724 24.066C4.84854 23.9023 4.7045 23.7354 4.56409 23.5645C4.4242 23.3935 4.28845 23.2194 4.15685 23.0422C4.02525 22.8645 3.89779 22.6842 3.775 22.5003C3.65221 22.3168 3.53407 22.1298 3.42061 21.9407C3.30714 21.7511 3.19834 21.5588 3.09419 21.364C2.99005 21.1692 2.89057 20.9718 2.79628 20.7723C2.70146 20.5723 2.61183 20.3703 2.52737 20.1661C2.44292 19.962 2.36365 19.7563 2.28904 19.548C2.21443 19.3403 2.14552 19.1304 2.08128 18.919C2.01703 18.7076 1.95796 18.4947 1.9046 18.2802C1.85071 18.0662 1.80253 17.8507 1.75952 17.6336C1.716 17.417 1.67818 17.1994 1.64606 16.9808C1.61342 16.7626 1.58647 16.543 1.56471 16.3233C1.54347 16.1036 1.52689 15.8834 1.51601 15.6627C1.50513 15.442 1.49995 15.2212 1.49995 15C1.49995 14.7793 1.50513 14.5586 1.51601 14.3378C1.52689 14.1171 1.54347 13.8969 1.56471 13.6767C1.58647 13.457 1.61342 13.2379 1.64606 13.0192C1.67818 12.8006 1.716 12.583 1.75952 12.3664C1.80253 12.1498 1.85071 11.9343 1.9046 11.7198C1.95796 11.5053 2.01703 11.2929 2.08128 11.081C2.14552 10.8696 2.21443 10.6603 2.28904 10.452C2.36365 10.2442 2.44292 10.038 2.52737 9.83386C2.61183 9.62972 2.70146 9.42765 2.79628 9.22818C2.89057 9.02819 2.99005 8.83078 3.09419 8.63597C3.19834 8.44116 3.30714 8.24894 3.42061 8.05983C3.53407 7.87019 3.65221 7.68367 3.775 7.49974C3.89779 7.31633 4.02525 7.1355 4.15685 6.95831C4.28845 6.78059 4.4242 6.60651 4.56409 6.43553C4.7045 6.26507 4.84854 6.09772 4.99724 5.93399C5.14542 5.77027 5.29774 5.61017 5.45422 5.45422C5.61017 5.29774 5.77027 5.14542 5.93399 4.99724C6.09772 4.84906 6.26507 4.7045 6.43553 4.56461C6.60651 4.4242 6.78059 4.28845 6.95779 4.15685C7.1355 4.02525 7.31581 3.89779 7.49974 3.775C7.68367 3.65221 7.87019 3.53407 8.05931 3.42061C8.24894 3.30714 8.44116 3.19834 8.63597 3.09419C8.83078 2.99005 9.02819 2.89057 9.22818 2.79628C9.42765 2.70146 9.62972 2.61234 9.83386 2.52789C10.038 2.44292 10.2437 2.36365 10.452 2.28904C10.6597 2.21495 10.8696 2.14552 11.081 2.08128C11.2924 2.01703 11.5053 1.95848 11.7198 1.9046C11.9338 1.85071 12.1493 1.80253 12.3664 1.75952C12.583 1.71652 12.8006 1.6787 13.0192 1.64606C13.2379 1.61393 13.457 1.58647 13.6767 1.56523C13.8964 1.54347 14.1171 1.52689 14.3373 1.51601C14.558 1.50565 14.7793 1.49995 15 1.49995C15.2207 1.49995 15.442 1.50565 15.6622 1.51601C15.8829 1.52689 16.1036 1.54347 16.3233 1.56523C16.543 1.58647 16.7621 1.61393 16.9808 1.64606C17.1994 1.6787 17.417 1.71652 17.6336 1.75952C17.8502 1.80253 18.0657 1.85071 18.2802 1.9046C18.4947 1.95848 18.7076 2.01703 18.919 2.08128C19.1304 2.14552 19.3397 2.21495 19.548 2.28904C19.7558 2.36365 19.962 2.44292 20.1661 2.52789C20.3703 2.61234 20.5723 2.70146 20.7718 2.79628C20.9718 2.89057 21.1692 2.99005 21.364 3.09419C21.5588 3.19834 21.7511 3.30714 21.9402 3.42061C22.1298 3.53407 22.3163 3.65221 22.5003 3.775C22.6837 3.89779 22.8645 4.02525 23.0422 4.15685C23.2194 4.28845 23.3935 4.4242 23.5645 4.56461C23.7349 4.7045 23.9023 4.84906 24.066 4.99724C24.2297 5.14542 24.3898 5.29774 24.5458 5.45422C24.7023 5.61017 24.8546 5.77027 25.0028 5.93399C25.1515 6.09772 25.2955 6.26507 25.4359 6.43553C25.5758 6.60651 25.7115 6.78059 25.8431 6.95831C25.9748 7.1355 26.1022 7.31633 26.225 7.49974C26.3478 7.68367 26.4659 7.87019 26.5794 8.05983C26.6929 8.24894 26.8017 8.44116 26.9058 8.63597C27.0099 8.83078 27.1094 9.02819 27.2037 9.22818C27.2985 9.42765 27.3877 9.62972 27.4726 9.83386C27.5571 10.038 27.6364 10.2442 27.711 10.452C27.7856 10.6603 27.8545 10.8696 27.9187 11.081C27.983 11.2929 28.042 11.5053 28.0954 11.7198C28.1493 11.9343 28.1975 12.1498 28.2405 12.3664C28.284 12.583 28.3213 12.8006 28.3539 13.0192C28.3866 13.2379 28.4135 13.457 28.4353 13.6767C28.4565 13.8969 28.4731 14.1171 28.484 14.3378C28.4949 14.5586 28.5001 14.7793 28.5001 15C28.4995 15.2207 28.4944 15.4414 28.483 15.6622C28.4721 15.8829 28.4555 16.1031 28.4337 16.3228C28.412 16.5424 28.3845 16.7616 28.3519 16.9802C28.3192 17.1984 28.2814 17.416 28.2379 17.6326C28.1949 17.8491 28.1462 18.0647 28.0923 18.2792C28.0384 18.4931 27.9793 18.7061 27.9151 18.917C27.8509 19.1284 27.7814 19.3382 27.7068 19.546C27.6322 19.7537 27.5529 19.9599 27.468 20.1641C27.3835 20.3677 27.2939 20.5698 27.1996 20.7692C27.1048 20.9687 27.0053 21.1661 26.9011 21.3609C26.797 21.5557 26.6882 21.7474 26.5747 21.9371C26.4607 22.1267 26.3426 22.3132 26.2198 22.4966C26.097 22.68 25.9701 22.8609 25.8385 23.0381C25.7069 23.2153 25.5711 23.3893 25.4307 23.5603C25.2908 23.7308 25.1463 23.8981 24.9981 24.0619C24.8499 24.2256 24.6976 24.3852 24.5411 24.5416C24.3852 24.6976 24.2251 24.8499 24.0619 24.9981C23.8981 25.1468 23.7308 25.2908 23.5603 25.4307C23.3893 25.5711 23.2153 25.7069 23.0381 25.8385C22.8603 25.9701 22.68 26.0975 22.4966 26.2203C22.3127 26.3431 22.1262 26.4613 21.9371 26.5747C21.7474 26.6882 21.5557 26.797 21.3609 26.9017C21.1661 27.0058 20.9687 27.1048 20.7692 27.1996C20.5698 27.2939 20.3677 27.3835 20.1636 27.4685C19.9599 27.5529 19.7537 27.6327 19.546 27.7073C19.3382 27.7814 19.1284 27.8509 18.917 27.9151C18.7056 27.9793 18.4931 28.0384 18.2786 28.0923C18.0647 28.1462 17.8491 28.1949 17.6326 28.2384C17.416 28.2814 17.1984 28.3192 16.9802 28.3519C16.7616 28.3845 16.5424 28.412 16.3228 28.4337C16.1031 28.4555 15.8829 28.4721 15.6622 28.483C15.4414 28.4944 15.2207 28.5001 15 28.5001Z" fill="#C64040"/>
</svg>
