<svg width="30" height="30" viewBox="0 0 30 30" fill="none" xmlns="http://www.w3.org/2000/svg">
<path d="M13.4209 7.89453H16.5788V8.68414H13.4209V7.89453Z" fill="#C64040"/>
<path d="M15 0C14.7544 0 14.5093 0.00569938 14.2638 0.017616C14.0187 0.0300508 13.7741 0.0481848 13.5296 0.0720182C13.2856 0.0958515 13.042 0.125902 12.799 0.162171C12.556 0.197921 12.3146 0.239888 12.0737 0.288073C11.8328 0.33574 11.5934 0.389624 11.355 0.449207C11.1172 0.508791 10.8805 0.574592 10.6457 0.645574C10.4105 0.717074 10.1779 0.793755 9.94681 0.876654C9.71521 0.959552 9.48672 1.04763 9.25978 1.14141C9.03285 1.23571 8.8085 1.33519 8.58675 1.43985C8.36448 1.54502 8.14531 1.65538 7.92874 1.77092C7.71269 1.88646 7.4987 2.0077 7.28835 2.13361C7.07799 2.26003 6.87023 2.39111 6.66661 2.52789C6.46247 2.66416 6.26144 2.8056 6.06456 2.95171C5.86715 3.09782 5.6739 3.24911 5.48427 3.40455C5.29412 3.5605 5.10863 3.7206 4.92677 3.88536C4.7444 4.05064 4.56668 4.21954 4.39311 4.39311C4.21954 4.56668 4.05064 4.7444 3.88588 4.92625C3.7206 5.10811 3.5605 5.29412 3.40455 5.48375C3.24911 5.6739 3.09782 5.86715 2.95171 6.06456C2.8056 6.26144 2.66416 6.46195 2.52789 6.66609C2.39163 6.87023 2.26003 7.07748 2.13412 7.28835C2.0077 7.4987 1.88698 7.71217 1.77092 7.92874C1.65538 8.14531 1.54502 8.36448 1.43985 8.58675C1.33519 8.8085 1.23571 9.03285 1.14193 9.25978C1.04763 9.4862 0.959552 9.71521 0.876654 9.94629C0.794273 10.1774 0.717074 10.4105 0.645574 10.6457C0.574592 10.8805 0.509309 11.1172 0.449207 11.355C0.389624 11.5934 0.336258 11.8328 0.288073 12.0737C0.240406 12.3141 0.198439 12.556 0.162171 12.799C0.126421 13.0415 0.0963696 13.285 0.0720182 13.5296C0.0481848 13.7741 0.0300507 14.0187 0.0181341 14.2638C0.00569928 14.5088 0 14.7544 0 15C0 15.2456 0.00569928 15.4907 0.0181341 15.7357C0.0300507 15.9813 0.0481848 16.2259 0.0720182 16.4699C0.0963696 16.7144 0.126421 16.958 0.162171 17.201C0.198439 17.4434 0.240406 17.6854 0.288073 17.9263C0.336258 18.1672 0.389624 18.4066 0.449207 18.6444C0.509309 18.8828 0.574592 19.119 0.645574 19.3543C0.717074 19.589 0.794273 19.8221 0.876654 20.0532C0.959552 20.2843 1.04763 20.5133 1.14193 20.7402C1.23571 20.9672 1.33519 21.1915 1.43985 21.4132C1.54502 21.635 1.65538 21.8542 1.77092 22.0707C1.88698 22.2873 2.0077 22.5008 2.13412 22.7117C2.26003 22.922 2.39163 23.1293 2.52789 23.3334C2.66416 23.5375 2.8056 23.738 2.95171 23.9354C3.09782 24.1323 3.24911 24.3261 3.40455 24.5157C3.5605 24.7054 3.7206 24.8914 3.88588 25.0732C4.05064 25.2551 4.21954 25.4328 4.39311 25.6064C4.56668 25.7799 4.7444 25.9494 4.92677 26.1141C5.10863 26.2789 5.29412 26.4395 5.48427 26.5949C5.6739 26.7509 5.86715 26.9017 6.06456 27.0483C6.26144 27.1944 6.46247 27.3358 6.66661 27.4721C6.87023 27.6084 7.07799 27.7395 7.28835 27.8659C7.4987 27.9923 7.71269 28.113 7.92874 28.2286C8.14531 28.3446 8.36448 28.455 8.58675 28.5596C8.8085 28.6648 9.03285 28.7643 9.25978 28.8581C9.48672 28.9518 9.71521 29.0404 9.94681 29.1233C10.1779 29.2057 10.4105 29.2829 10.6457 29.3539C10.8805 29.4254 11.1172 29.4907 11.355 29.5503C11.5934 29.6099 11.8328 29.6637 12.0737 29.7119C12.3146 29.7596 12.556 29.8016 12.799 29.8378C13.042 29.8736 13.2856 29.9036 13.5296 29.9275C13.7741 29.9518 14.0187 29.9699 14.2638 29.9819C14.5093 29.9938 14.7544 30 15 30C15.2456 30 15.4907 29.9938 15.7362 29.9819C15.9813 29.9699 16.2259 29.9518 16.4704 29.9275C16.7144 29.9036 16.958 29.8736 17.201 29.8378C17.444 29.8016 17.6854 29.7596 17.9263 29.7119C18.1672 29.6637 18.4066 29.6099 18.645 29.5503C18.8828 29.4907 19.1195 29.4254 19.3543 29.3539C19.589 29.2829 19.8221 29.2057 20.0532 29.1233C20.2843 29.0404 20.5133 28.9518 20.7402 28.8581C20.9672 28.7643 21.1915 28.6648 21.4132 28.5596C21.635 28.455 21.8547 28.3446 22.0707 28.2286C22.2873 28.113 22.5008 27.9923 22.7117 27.8659C22.922 27.7395 23.1293 27.6084 23.3334 27.4721C23.5375 27.3358 23.7386 27.1944 23.9354 27.0483C24.1328 26.9017 24.3261 26.7509 24.5157 26.5949C24.7059 26.4395 24.8914 26.2789 25.0732 26.1141C25.2551 25.9494 25.4328 25.7799 25.6069 25.6064C25.7805 25.4328 25.9494 25.2551 26.1141 25.0732C26.2794 24.8914 26.4395 24.7054 26.5949 24.5157C26.7509 24.3261 26.9017 24.1323 27.0483 23.9354C27.1944 23.738 27.3358 23.5375 27.4721 23.3334C27.6084 23.1293 27.74 22.922 27.8659 22.7117C27.9923 22.5008 28.113 22.2873 28.2291 22.0707C28.3446 21.8542 28.455 21.635 28.5596 21.4132C28.6648 21.1915 28.7643 20.9672 28.8581 20.7402C28.9524 20.5133 29.0404 20.2843 29.1233 20.0532C29.2057 19.8221 29.2829 19.589 29.3539 19.3543C29.4254 19.119 29.4907 18.8828 29.5503 18.6444C29.6104 18.4066 29.6637 18.1672 29.7119 17.9263C29.7596 17.6854 29.8016 17.4434 29.8378 17.201C29.8736 16.958 29.9036 16.7144 29.928 16.4699C29.9518 16.2259 29.9699 15.9813 29.9819 15.7357C29.9938 15.4907 30 15.2456 30 15C30 14.7544 29.9933 14.5093 29.9813 14.2643C29.9689 14.0192 29.9508 13.7741 29.9264 13.5301C29.9021 13.2861 29.872 13.0426 29.8358 12.7996C29.7995 12.5571 29.757 12.3151 29.7093 12.0747C29.6612 11.8338 29.6073 11.5944 29.5472 11.3566C29.4876 11.1188 29.4218 10.882 29.3503 10.6473C29.2793 10.4126 29.2021 10.18 29.1192 9.94888C29.0363 9.7178 28.9477 9.48879 28.8539 9.26237C28.7596 9.03544 28.6601 8.81109 28.555 8.58934C28.4503 8.36759 28.34 8.14842 28.2239 7.93237C28.1084 7.7158 27.9871 7.50233 27.8612 7.29198C27.7348 7.08162 27.6032 6.87437 27.4669 6.67024C27.3307 6.4661 27.1892 6.26559 27.0431 6.0687C26.897 5.8713 26.7457 5.67804 26.5903 5.48841C26.4343 5.29878 26.2742 5.11278 26.1095 4.93092C25.9447 4.74906 25.7753 4.57134 25.6017 4.39829C25.4281 4.22472 25.2504 4.0553 25.0686 3.89054C24.8867 3.72578 24.7012 3.56568 24.5116 3.40973C24.322 3.25377 24.1282 3.103 23.9313 2.95689C23.7344 2.81078 23.5339 2.66934 23.3298 2.53307C23.1256 2.39629 22.9184 2.26521 22.708 2.13879C22.4977 2.01288 22.2842 1.89164 22.0676 1.7761C21.8511 1.66005 21.6324 1.54969 21.4107 1.44451C21.1884 1.33985 20.9646 1.23985 20.7376 1.14607C20.5112 1.05178 20.2822 0.963697 20.0511 0.880799C19.82 0.7979 19.5874 0.7207 19.3522 0.6492C19.1175 0.578218 18.8812 0.512418 18.6434 0.452316C18.4051 0.392733 18.1657 0.338848 17.9253 0.290664C17.6844 0.242479 17.4429 0.200511 17.1999 0.164243C16.9574 0.127975 16.7139 0.0979241 16.4699 0.0735726C16.2253 0.0492211 15.9808 0.031087 15.7357 0.0186522C15.4907 0.0062174 15.2456 0 15 0ZM21.3158 20.677C21.3133 20.778 21.3055 20.8786 21.2925 20.9791C21.2801 21.0791 21.2625 21.1785 21.2402 21.277C21.2179 21.3759 21.1905 21.4728 21.1589 21.5687C21.1267 21.6645 21.0899 21.7588 21.049 21.8511C21.0081 21.9433 20.9625 22.0334 20.9122 22.1215C20.8625 22.2091 20.8081 22.2946 20.7501 22.3769C20.6915 22.4593 20.6293 22.5391 20.563 22.6153C20.4972 22.692 20.4273 22.765 20.3542 22.8344C20.2806 22.9039 20.2045 22.9702 20.1247 23.0318C20.0449 23.094 19.962 23.152 19.877 23.2065C19.7915 23.2603 19.7035 23.3101 19.6133 23.3552C19.5232 23.4007 19.4304 23.4417 19.3361 23.4779C19.2418 23.5142 19.146 23.5458 19.0486 23.5728C18.9512 23.5997 18.8527 23.622 18.7532 23.6396C18.6538 23.6567 18.5538 23.6691 18.4527 23.6764C18.3517 23.6842 18.2512 23.6867 18.1501 23.6842H11.8498C11.7488 23.6867 11.6478 23.6842 11.5473 23.6764C11.4462 23.6691 11.3462 23.6567 11.2468 23.6396C11.1473 23.622 11.0488 23.5997 10.9514 23.5728C10.854 23.5458 10.7582 23.5142 10.6634 23.4779C10.5691 23.4417 10.4768 23.4007 10.3867 23.3552C10.2965 23.3101 10.2085 23.2603 10.123 23.2065C10.0375 23.152 9.9551 23.094 9.87531 23.0318C9.79552 22.9702 9.71935 22.9039 9.64578 22.8344C9.57273 22.765 9.50278 22.692 9.43698 22.6153C9.37066 22.5391 9.30849 22.4593 9.24994 22.3769C9.19191 22.2946 9.13751 22.2091 9.08777 22.1215C9.03751 22.0334 8.99192 21.9433 8.95099 21.8511C8.91005 21.7588 8.87327 21.6645 8.84115 21.5687C8.80954 21.4728 8.78208 21.3759 8.7598 21.277C8.73752 21.1785 8.71991 21.0791 8.70747 20.9791C8.69452 20.8786 8.68675 20.778 8.68416 20.677V11.8421C8.68416 11.7903 8.68934 11.739 8.69918 11.6877C8.70954 11.6369 8.72457 11.5877 8.74426 11.54C8.76395 11.4918 8.7883 11.4462 8.81731 11.4032C8.84581 11.3602 8.87897 11.3203 8.91524 11.2835C8.95202 11.2473 8.99192 11.2141 9.03492 11.1856C9.07792 11.1566 9.12352 11.1323 9.1717 11.1126C9.21937 11.0929 9.26859 11.0779 9.31937 11.0675C9.37066 11.0576 9.42195 11.0525 9.47377 11.0525C9.52558 11.0525 9.57687 11.0576 9.62765 11.0675C9.67842 11.0779 9.72764 11.0929 9.77583 11.1126C9.82349 11.1323 9.86909 11.1566 9.91209 11.1856C9.9551 11.2141 9.99499 11.2473 10.0318 11.2835C10.0686 11.3203 10.1012 11.3602 10.1302 11.4032C10.1587 11.4462 10.1831 11.4918 10.2028 11.54C10.223 11.5877 10.238 11.6369 10.2478 11.6877C10.2582 11.739 10.2629 11.7903 10.2629 11.8421V20.677C10.2686 20.776 10.2841 20.8734 10.3085 20.9692C10.3333 21.0651 10.367 21.1573 10.41 21.2469C10.4525 21.3361 10.5038 21.4205 10.5628 21.4998C10.6224 21.579 10.6887 21.6516 10.7623 21.7179C10.8359 21.7842 10.9152 21.8428 11.0007 21.893C11.0856 21.9438 11.1747 21.9858 11.268 22.0189C11.3613 22.0521 11.4566 22.0759 11.5545 22.0904C11.6524 22.1049 11.7509 22.1101 11.8498 22.1049H18.1501C18.2491 22.1101 18.3476 22.1049 18.4455 22.0904C18.5434 22.0759 18.6387 22.0521 18.732 22.0189C18.8253 21.9858 18.9144 21.9438 18.9993 21.893C19.0848 21.8428 19.1641 21.7842 19.2377 21.7179C19.3112 21.6516 19.3776 21.579 19.4366 21.4998C19.4962 21.4205 19.5475 21.3361 19.59 21.2469C19.633 21.1573 19.6667 21.0651 19.6915 20.9692C19.7159 20.8734 19.7314 20.776 19.7366 20.677V11.8421C19.7366 11.7903 19.7418 11.739 19.7522 11.6877C19.762 11.6369 19.777 11.5877 19.7967 11.54C19.8169 11.4918 19.8413 11.4462 19.8698 11.4032C19.8988 11.3602 19.9314 11.3203 19.9682 11.2835C20.0045 11.2473 20.0444 11.2141 20.0879 11.1856C20.1309 11.1566 20.1765 11.1323 20.2242 11.1126C20.2718 11.0929 20.3216 11.0779 20.3724 11.0675C20.4231 11.0576 20.4744 11.0525 20.5262 11.0525C20.578 11.0525 20.6293 11.0576 20.6801 11.0675C20.7314 11.0779 20.7806 11.0929 20.8283 11.1126C20.8765 11.1323 20.9221 11.1566 20.9651 11.1856C21.0081 11.2141 21.048 11.2473 21.0848 11.2835C21.121 11.3203 21.1542 11.3602 21.1827 11.4032C21.2117 11.4462 21.2361 11.4918 21.2557 11.54C21.2754 11.5877 21.2905 11.6369 21.3008 11.6877C21.3107 11.739 21.3158 11.7903 21.3158 11.8421V20.677ZM12.6317 18.947V13.4208C12.6317 13.369 12.6364 13.3177 12.6467 13.2669C12.6571 13.2161 12.6716 13.1669 12.6918 13.1187C12.7115 13.0711 12.7358 13.0255 12.7648 12.9825C12.7933 12.9394 12.826 12.8996 12.8628 12.8628C12.8996 12.826 12.9394 12.7933 12.9825 12.7643C13.0255 12.7358 13.0711 12.7115 13.1187 12.6913C13.1669 12.6716 13.2161 12.6566 13.2669 12.6467C13.3177 12.6364 13.369 12.6312 13.4208 12.6312C13.4731 12.6312 13.5244 12.6364 13.5752 12.6467C13.626 12.6566 13.6752 12.6716 13.7234 12.6913C13.771 12.7115 13.8166 12.7358 13.8596 12.7643C13.9026 12.7933 13.9425 12.826 13.9793 12.8628C14.0161 12.8996 14.0487 12.9394 14.0772 12.9825C14.1062 13.0255 14.1306 13.0711 14.1503 13.1187C14.17 13.1669 14.185 13.2161 14.1954 13.2669C14.2052 13.3177 14.2104 13.369 14.2104 13.4208V18.947C14.2104 18.9993 14.2052 19.0506 14.1954 19.1014C14.185 19.1522 14.17 19.2014 14.1503 19.2496C14.1306 19.2973 14.1062 19.3429 14.0772 19.3859C14.0487 19.4289 14.0161 19.4688 13.9793 19.5055C13.9425 19.5423 13.9026 19.575 13.8596 19.6035C13.8166 19.6325 13.771 19.6568 13.7234 19.6765C13.6752 19.6967 13.626 19.7112 13.5752 19.7216C13.5244 19.7314 13.4731 19.7366 13.4208 19.7366C13.369 19.7366 13.3177 19.7314 13.2669 19.7216C13.2161 19.7112 13.1669 19.6967 13.1187 19.6765C13.0711 19.6568 13.0255 19.6325 12.9825 19.6035C12.9394 19.575 12.8996 19.5423 12.8628 19.5055C12.826 19.4688 12.7933 19.4289 12.7648 19.3859C12.7358 19.3429 12.7115 19.2973 12.6918 19.2496C12.6716 19.2014 12.6571 19.1522 12.6467 19.1014C12.6364 19.0506 12.6317 18.9993 12.6317 18.947ZM15.7896 18.947V13.4208C15.7896 13.369 15.7943 13.3177 15.8046 13.2669C15.8145 13.2161 15.8295 13.1669 15.8497 13.1187C15.8694 13.0711 15.8938 13.0255 15.9222 12.9825C15.9513 12.9394 15.9839 12.8996 16.0207 12.8628C16.0575 12.826 16.0974 12.7933 16.1404 12.7643C16.1834 12.7358 16.229 12.7115 16.2766 12.6913C16.3248 12.6716 16.374 12.6566 16.4248 12.6467C16.4756 12.6364 16.5269 12.6312 16.5787 12.6312C16.6305 12.6312 16.6823 12.6364 16.7331 12.6467C16.7839 12.6566 16.8331 12.6716 16.8813 12.6913C16.9289 12.7115 16.9745 12.7358 17.0175 12.7643C17.0606 12.7933 17.1004 12.826 17.1372 12.8628C17.174 12.8996 17.2067 12.9394 17.2352 12.9825C17.2642 13.0255 17.2885 13.0711 17.3082 13.1187C17.3279 13.1669 17.3429 13.2161 17.3533 13.2669C17.3631 13.3177 17.3683 13.369 17.3683 13.4208V18.947C17.3683 18.9993 17.3631 19.0506 17.3533 19.1014C17.3429 19.1522 17.3279 19.2014 17.3082 19.2496C17.2885 19.2973 17.2642 19.3429 17.2352 19.3859C17.2067 19.4289 17.174 19.4688 17.1372 19.5055C17.1004 19.5423 17.0606 19.575 17.0175 19.6035C16.9745 19.6325 16.9289 19.6568 16.8813 19.6765C16.8331 19.6967 16.7839 19.7112 16.7331 19.7216C16.6823 19.7314 16.6305 19.7366 16.5787 19.7366C16.5269 19.7366 16.4756 19.7314 16.4248 19.7216C16.374 19.7112 16.3248 19.6967 16.2766 19.6765C16.229 19.6568 16.1834 19.6325 16.1404 19.6035C16.0974 19.575 16.0575 19.5423 16.0207 19.5055C15.9839 19.4688 15.9513 19.4289 15.9222 19.3859C15.8938 19.3429 15.8694 19.2973 15.8497 19.2496C15.8295 19.2014 15.8145 19.1522 15.8046 19.1014C15.7943 19.0506 15.7896 18.9993 15.7896 18.947ZM21.3158 10.2629H8.68416C8.63234 10.2629 8.58105 10.2582 8.53028 10.2478C8.4795 10.2375 8.42976 10.223 8.38209 10.2028C8.33391 10.1831 8.28883 10.1587 8.24531 10.1297C8.20231 10.1012 8.16241 10.0686 8.12614 10.0318C8.08936 9.99499 8.05672 9.9551 8.0277 9.91209C7.99869 9.86909 7.97485 9.82349 7.95465 9.77583C7.93496 9.72764 7.91993 9.67842 7.91009 9.62765C7.89973 9.57687 7.89455 9.52558 7.89455 9.47377C7.89455 9.42144 7.89973 9.37014 7.91009 9.31937C7.91993 9.26859 7.93496 9.21937 7.95465 9.17119C7.97485 9.12352 7.99869 9.07792 8.0277 9.03492C8.05672 8.99192 8.08936 8.95202 8.12614 8.91524C8.16241 8.87845 8.20231 8.84581 8.24531 8.81731C8.28883 8.7883 8.33391 8.76395 8.38209 8.74426C8.42976 8.72405 8.4795 8.70954 8.53028 8.69918C8.58105 8.68934 8.63234 8.68416 8.68416 8.68416H11.8421V7.10494C11.8421 7.05312 11.8473 7.00183 11.8571 6.95106C11.8675 6.90028 11.8825 6.85106 11.9022 6.80287C11.9219 6.75521 11.9462 6.70961 11.9752 6.66661C12.0037 6.62361 12.0369 6.58371 12.0732 6.54692C12.1099 6.51014 12.1498 6.4775 12.1928 6.44848C12.2358 6.41999 12.2814 6.39563 12.3296 6.37595C12.3773 6.35574 12.4265 6.34071 12.4773 6.33087C12.5286 6.32051 12.5799 6.31584 12.6317 6.31584H17.3683C17.4201 6.31584 17.4714 6.32051 17.5222 6.33087C17.5735 6.34071 17.6227 6.35574 17.6704 6.37595C17.7186 6.39563 17.7642 6.41999 17.8072 6.44848C17.8502 6.4775 17.8901 6.51014 17.9268 6.54692C17.9631 6.58371 17.9963 6.62361 18.0248 6.66661C18.0538 6.70961 18.0781 6.75521 18.0978 6.80287C18.1175 6.85106 18.1325 6.90028 18.1429 6.95106C18.1527 7.00183 18.1579 7.05312 18.1579 7.10494V8.68416H21.3158C21.3677 8.68416 21.4189 8.68934 21.4697 8.69918C21.5205 8.70954 21.5702 8.72405 21.6179 8.74426C21.6656 8.76395 21.7112 8.7883 21.7542 8.81731C21.7977 8.84581 21.8376 8.87845 21.8739 8.91524C21.9106 8.95202 21.9433 8.99192 21.9723 9.03492C22.0008 9.07792 22.0251 9.12352 22.0454 9.17119C22.065 9.21937 22.0801 9.26859 22.0899 9.31937C22.1003 9.37014 22.1055 9.42144 22.1055 9.47377C22.1055 9.52558 22.1003 9.57687 22.0899 9.62765C22.0801 9.67842 22.065 9.72764 22.0454 9.77583C22.0251 9.82349 22.0008 9.86909 21.9723 9.91209C21.9433 9.9551 21.9106 9.99499 21.8739 10.0318C21.8376 10.0686 21.7977 10.1012 21.7542 10.1297C21.7112 10.1587 21.6656 10.1831 21.6179 10.2028C21.5702 10.223 21.5205 10.2375 21.4697 10.2478C21.4189 10.2582 21.3677 10.2629 21.3158 10.2629Z" fill="#C64040"/>
</svg>
